<svg xmlns="http://www.w3.org/2000/svg" width="90" height="50" viewBox="0 0 90 50"><path d="M39.63 31.25h3.48l-6.5-14.17h-1a.8.8 0 0 0-.44.13.91.91 0 0 0-.31.34l-6.54 13.7h2.32l1.17-2.31h6.68zm-4.36-9.56l2.84 6.12H32.3zm12.31 9.56h-3.15V17.69a.61.61 0 0 1 .61-.61h2.54zm2.76-9.84a.61.61 0 0 1 .66-.61h2.56v10.45h-3.22zm5.82 0a.61.61 0 0 1 .18-.43.58.58 0 0 1 .43-.18h2.57v.82a4.69 4.69 0 0 1 1.25-.74 4.38 4.38 0 0 1 1.65-.29 4.15 4.15 0 0 1 1.82.39 4.39 4.39 0 0 1 1.41 1.07 4.83 4.83 0 0 1 .9 1.56 5.69 5.69 0 0 1 .31 1.9 7.27 7.27 0 0 1-.37 2.37 5.54 5.54 0 0 1-1.08 1.88A4.88 4.88 0 0 1 63.54 31a5.35 5.35 0 0 1-2.23.45c-.42 0-.78 0-1.08-.05a3.07 3.07 0 0 1-.89-.23v4.19h-3.18zm3.18 6.93a2 2 0 0 0 .14.72 1.94 1.94 0 0 0 .4.58 1.72 1.72 0 0 0 .62.39 2.38 2.38 0 0 0 .81.14 1.27 1.27 0 0 0 .77-.27 2.31 2.31 0 0 0 .63-.76 4.53 4.53 0 0 0 .42-1.14 6.16 6.16 0 0 0 .16-1.46 9.38 9.38 0 0 0-.14-1.78 4.73 4.73 0 0 0-.39-1.28 2.11 2.11 0 0 0-.6-.77 1.23 1.23 0 0 0-.77-.26 1.66 1.66 0 0 0-.59.1 2.31 2.31 0 0 0-.54.28 3 3 0 0 0-.49.41 5 5 0 0 0-.43.5zm15.56-7.42a11.38 11.38 0 0 0-6.07.17c.08.26.2.73.28 1 4.15-.74 5-.16 5 1.63v.56c-.76-.05-1.66-.18-2.39-.19a3.64 3.64 0 0 0-3.87 3.65c0 2.5 2.37 4.82 6.26 3.11v.4h3.24v-7.63a3 3 0 0 0-2.45-2.7zm-4.53 6.87a2.29 2.29 0 0 1 2.2-2.23 2.47 2.47 0 0 1 1.5.25v3.59a2.23 2.23 0 0 1-1.5.59 2.19 2.19 0 0 1-2.2-2.2zm7.8-7.18h3.36l3.31 6.44 2.72-6a.75.75 0 0 1 .26-.3.7.7 0 0 1 .39-.11H90l-5.27 11.6A4.5 4.5 0 0 1 79.82 35v-1.8a3.62 3.62 0 0 0 2.46-.68 3.43 3.43 0 0 0 .37-.65c.1-.2.18-.37.25-.53l.37-.84zm-24.55-2.9a1.71 1.71 0 1 1-1.71-1.55 1.63 1.63 0 0 1 1.71 1.55z" fill="#231f20"></path><path opacity=".5" d="M15.23 29c-2.21 2.71-5.05 4.35-8 4.35-5 0-6.69-4.36-4.33-7.22a5 5 0 0 1 2.76-1.53c2.12-.52 5.51.32 8.69 1.37a17.59 17.59 0 0 0 1.41-3.44H6v-1h5v-1.75H4.91v-1H11v-2.52a.42.42 0 0 1 .43-.43h2.46v3H20v1h-6.09v1.77h4.94a20.49 20.49 0 0 1-2.09 5.26c1.49.54 2.84 1.05 3.84 1.38a27.42 27.42 0 0 0 4.4 1.22V16.52a4 4 0 0 0-4-4H4a4 4 0 0 0-4 4v17a4 4 0 0 0 4 4h17a4 4 0 0 0 4-4v-.17s-6.49-2.74-9.77-4.35z"></path><path opacity=".5" d="M6.08 26.08a5 5 0 0 0-2.44.9c-1.92 1.67-.77 4.73 3.12 4.73 2.26 0 4.52-1.44 6.3-3.75-2.53-1.23-4.67-2.11-6.98-1.88z"></path></svg>