<svg xmlns="http://www.w3.org/2000/svg" width="315" height="120" viewBox="0 0 315 120"><path d="M128.73 38a4.74 4.74 0 1 0 4.73 4.74 4.73 4.73 0 0 0-4.73-4.74zm74.57 31.51a4.74 4.74 0 1 0 4.7 4.75 4.74 4.74 0 0 0-4.7-4.75zM46.44 49.61c-8.61 0-14.86 6.2-14.86 14.75S37.83 79.1 46.44 79.1s14.92-6.2 14.92-14.74-6.27-14.75-14.92-14.75zm0 22.6c-4.07 0-6.9-3.23-6.9-7.85s2.83-7.85 6.9-7.85 7 3.23 7 7.85-2.84 7.85-7 7.85zm68.42-7.12a7 7 0 0 0-1.13-1.58l-.26-.28.27-.26a11.25 11.25 0 0 0 1.19-1.49l7.6-11.29h-9.23L107.6 59a2.23 2.23 0 0 1-2 .72h-1.3V43c0-3.34-2.08-3.8-4.33-3.8h-3.81v39.47h8.17V66.84h.77c.93 0 1.56.11 1.85.61l4.52 8.55c1.26 2.31 2.52 2.7 4.88 2.7h6.26L118 71zm39.68-15.55a11.14 11.14 0 0 0-8.3 3.41l-.49.5-.18-.68c-.44-1.67-1.91-2.59-4.12-2.59h-3.67v28.48h8.11V65.53a10.62 10.62 0 0 1 .51-3.41 6.67 6.67 0 0 1 6.58-5c2.53 0 3.52 1.34 3.52 4.79v12.42c0 3 1.36 4.33 4.32 4.33h3.86V60.54c.02-7.19-3.49-11-10.14-11zm-25.7.65H125v28.46h8.08V54.5c.03-2.9-1.36-4.31-4.24-4.31zm-50.51-.58c-8.62 0-14.87 6.2-14.87 14.75S69.71 79.1 78.33 79.1s14.92-6.2 14.92-14.74S87 49.61 78.33 49.61zm0 22.6c-4.07 0-6.9-3.23-6.9-7.85s2.83-7.85 6.9-7.85 7 3.23 7 7.85-2.84 7.85-7 7.85zm174.03-22.6c-8.62 0-14.87 6.2-14.87 14.75s6.25 14.74 14.87 14.74 14.92-6.2 14.92-14.74-6.28-14.75-14.92-14.75zm0 22.6c-4.07 0-6.9-3.23-6.9-7.85s2.83-7.85 6.9-7.85 6.95 3.23 6.95 7.85-2.8 7.85-6.95 7.85zm-60.74-22.1a3.53 3.53 0 0 0-3.32 1.74l-.23.43-.37-.28a11 11 0 0 0-7.48-2.48c-7.59 0-12.7 5.7-12.7 14.19s5.29 14.39 12.85 14.39a10 10 0 0 0 6.25-1.82l.63-.47v.79c0 3.8-2.46 5.9-6.92 5.9a16.35 16.35 0 0 1-5.46-1c-1.72-.52-2.73-.09-3.43 1.64l-.65 1.6-.91 2.26.57.31a22.21 22.21 0 0 0 9.92 2.41c6.92 0 15-3.53 15-13.49V50.1zM181.82 71c-4.44 0-6-3.87-6-7.5 0-1.6.4-6.81 5.59-6.81 2.58 0 6 .74 6 7.08-.01 5.93-3.05 7.23-5.59 7.23zM24.65 58.45l-1.2-.67 1-.89a9.52 9.52 0 0 0 3.25-7.44c0-6.2-4.81-10.2-12.25-10.2H6a4.14 4.14 0 0 0-4 4.09v35.19h13.66c8.27 0 13.61-4.51 13.61-11.48a9.57 9.57 0 0 0-4.62-8.6zm-15-10c0-1.82.77-2.69 2.46-2.8h3.38a4.27 4.27 0 0 1 4.64 4.64c0 2.21-1.19 4.8-4.53 4.8h-6v-4.52zm6.61 23.39H9.6V64c0-1.69.65-2.56 2.1-2.77h4.51a4.94 4.94 0 0 1 5.29 5.32c0 3.33-2.03 5.33-5.29 5.33zm287.29-22.21zm0 .01a11.18 11.18 0 0 0-8.72 4.22l-.59.74-.46-.83c-1.5-2.74-4.09-4.13-7.69-4.13a10.32 10.32 0 0 0-7.48 3.36l-.77.84-.29-1.1c-.43-1.58-1.84-2.45-4-2.45h-3.41v28.38h7.75V66.13a14.23 14.23 0 0 1 .41-3.32c.74-3 2.78-6.28 6.2-6 2.11.2 3.13 1.83 3.13 5v16.85h7.81V66.13a11.38 11.38 0 0 1 .44-3.43c.63-2.89 2.75-5.85 6.05-5.85 2.39 0 3.27 1.35 3.27 5v12.66c0 2.86 1.28 4.15 4.14 4.15H313V60.54c0-7.23-3.19-10.9-9.45-10.9zM233 68.8s-3.36 3.55-7.75 3.55c-4 0-8.05-2.46-8.05-7.94 0-4.73 3.14-8 7.63-8 1.45 0 3.11.52 3.37 1.4v.15A2.85 2.85 0 0 0 231 60h4.25v-3.69c0-4.9-6.23-6.67-10.42-6.67-9 0-15.47 6.24-15.47 14.83s6.43 14.83 15.3 14.83a16 16 0 0 0 11.92-5.11l.23-.28-3.37-5.58z" fill="#6b7c93"/></svg>