<svg xmlns="http://www.w3.org/2000/svg" viewBox="0 0 3072 192"><path d="M0 187.5h3072v4.5H0v-4.5z" opacity=".3" fill="#555abf"/><path d="M0 0h3072v187.5H0V0z" opacity=".3" fill="#FFF"/><path d="M1246.5 102c-3.31 0-6 2.69-6 6v6h12v-6c0-3.31-2.69-6-6-6z" opacity=".5" fill="#FFF"/><path d="M2517 73.5H555c-8.28 0-15 6.72-15 15v57c0 8.28 6.72 15 15 15h1962c8.28 0 15-6.72 15-15v-57c0-8.28-6.72-15-15-15zm-1255.5 55.49c0 3.31-2.69 6-6 6h-18c-3.31 0-6-2.69-6-6v-12c0-2.14 1.15-4.12 3-5.19V108c0-6.63 5.37-12 12-12s12 5.37 12 12v3.8a6 6 0 0 1 3 5.2v11.99zm519-4.49c0 3.31-2.69 6-6 6h-477c-3.31 0-6-2.69-6-6v-15c0-3.31 2.69-6 6-6h477c3.31 0 6 2.69 6 6v15z" opacity=".5" fill="#FFF"/><g opacity=".75" fill="none" stroke="#555abf" stroke-width="4.5" stroke-linecap="round" stroke-linejoin="round"><path d="M114.3 96.95l-21.6 21.6 21.6 21.6m138.9-.05l21.6-21.6-21.6-21.6m152.4-4.5c-13.2 0-14.4 9.6-14.4 9.6v43.2S396 138 408 138c10.8 0 12 9.6 12 9.6V102s-1.2-9.6-14.4-9.6zM420 102s1.2-9.6 14.4-9.6 14.4 9.6 14.4 9.6v43.2S444 138 432 138c-10.8 0-12 9.6-12 9.6m2215.2-46.95h33.6a4.8 4.8 0 0 1 4.8 4.8v33.6a4.8 4.8 0 0 1-4.8 4.8h-33.6a4.8 4.8 0 0 1-4.8-4.8v-33.6a4.8 4.8 0 0 1 4.8-4.8zm26.4-8.4l-9.6-9.6-9.6 9.6m170.1.75v48m-24-24h48m116.53-15.75h31.22c3.31 0 6 2.69 6 6v31.22c0 3.31-2.69 6-6 6h-31.22c-3.31 0-6-2.69-6-6v-31.22c0-3.31 2.69-6 6-6z"/><path d="M2998.65 131.25a4.8 4.8 0 0 0 4.8-4.8v-33.6a4.8 4.8 0 0 0-4.8-4.8h-33.6a4.8 4.8 0 0 0-4.8 4.8"/></g></svg>