<svg xmlns="http://www.w3.org/2000/svg" width="90" height="50" viewBox="0 0 90 50"><path d="M29.07 14.35a2.79 2.79 0 0 1 2.79-2.78h21.86l-1.36-5.19a2.56 2.56 0 0 0-3.12-1.83l-32.82 8.54a2.58 2.58 0 0 0-1.84 3.13l6 23a2.57 2.57 0 0 0 3.12 1.83l5.37-1.4z" fill="#231f20" opacity=".5"></path><path d="M29.07 40.22A2.79 2.79 0 0 0 31.86 43h36.86a2.79 2.79 0 0 0 2.78-2.78V21.79H29.07zm34-4.73h2.71a1.79 1.79 0 0 1 0 3.58h-2.71a1.79 1.79 0 0 1 0-3.58zm-12.57 0h7.43a1.79 1.79 0 0 1 0 3.58H50.5a1.79 1.79 0 0 1 0-3.58zm18.22-23.92H31.86a2.79 2.79 0 0 0-2.79 2.78v1.15H71.5v-1.15a2.79 2.79 0 0 0-2.78-2.78z" fill="#231f20"></path></svg>