<svg xmlns="http://www.w3.org/2000/svg" width="398" height="120" viewBox="0 0 398 120"><path d="M67 66.82h1q-1.64 5.42-8 5.42a9.31 9.31 0 0 1-6.85-2.77 9.87 9.87 0 0 1-2.79-7.33 10.1 10.1 0 0 1 3-7.59 9.88 9.88 0 0 1 7.1-2.91A9.66 9.66 0 0 1 65 52.72c1.38.73 2.08 1.61 2.08 2.64a1.78 1.78 0 0 1-.39 1.1 1.3 1.3 0 0 1-1.1.51c-1 0-1.66-.6-1.89-1.79a3.54 3.54 0 0 0-.86-1.89 3.76 3.76 0 0 0-2.35-.53 5.41 5.41 0 0 0-4.69 2.16q-1.57 2.17-1.57 6.52a12.56 12.56 0 0 0 1.69 7A5.73 5.73 0 0 0 61.07 71q4.62 0 5.93-4.18zm16-11.27a9.8 9.8 0 0 1 3.13-2.93 7.64 7.64 0 0 1 3.81-1 7.17 7.17 0 0 1 3.89 1 4.52 4.52 0 0 1 2 2.41 16.52 16.52 0 0 1 .46 4.64v5.26a36.38 36.38 0 0 0 .12 4.07 1.41 1.41 0 0 0 .76 1.06 5.38 5.38 0 0 0 2.33.34v1.07h-9.85V70.4h.44a3.33 3.33 0 0 0 2.2-.49 1.83 1.83 0 0 0 .58-1.15c.06-.44.08-1.72.08-3.83v-5.72a16.64 16.64 0 0 0-.27-3.52 3.22 3.22 0 0 0-1.32-1.88 4.29 4.29 0 0 0-2.59-.75 5.35 5.35 0 0 0-3.26 1.06A8.83 8.83 0 0 0 83 57.3v7.63c0 2.14 0 3.46.1 4a1.55 1.55 0 0 0 .69 1.07 4.53 4.53 0 0 0 2.21.4v1.07h-9.68V70.4h.48a3.35 3.35 0 0 0 2.2-.48 1.83 1.83 0 0 0 .58-1.14c.06-.44.08-1.72.08-3.85v-19c0-1.93-.18-3.14-.54-3.65s-1.24-.77-2.62-.77v-1.06a16 16 0 0 0 6-1h.5zM128.2 68h.85q-.21 4-3.9 4a3.57 3.57 0 0 1-2.5-.84 4.18 4.18 0 0 1-1.19-2.49 24.47 24.47 0 0 1-4.25 2.49 8.82 8.82 0 0 1-3.45.84 5.14 5.14 0 0 1-3.33-1.12 3.59 3.59 0 0 1-1.4-3 5.19 5.19 0 0 1 2.34-4.19 28.44 28.44 0 0 1 6.48-3.49l3.61-1.47v-.93a11.32 11.32 0 0 0-.26-2.8 2.94 2.94 0 0 0-1.33-1.59 5.14 5.14 0 0 0-2.82-.7c-2.34 0-3.63.78-3.9 2.33s-.9 2.38-2 2.38-1.41-.45-1.41-1.35.62-1.84 1.88-2.85 3.21-1.53 5.86-1.53a9.34 9.34 0 0 1 4.59.93 4.77 4.77 0 0 1 2.15 2.12 9.44 9.44 0 0 1 .53 3.63V66a12.86 12.86 0 0 0 .28 3.47 1.15 1.15 0 0 0 1.21.76q1.59.03 1.96-2.23zm-6.74-8.15l-2.55 1q-6 2.45-6 6.14a3.49 3.49 0 0 0 .77 2.36 2.54 2.54 0 0 0 2 .9 5.91 5.91 0 0 0 2.55-.72 18.88 18.88 0 0 0 3.24-2.16zm22.66-3.34a8 8 0 0 1 2.57-3.51 5.71 5.71 0 0 1 3.49-1.4 3.1 3.1 0 0 1 2.41 1 2.86 2.86 0 0 1 .89 1.95 1.64 1.64 0 0 1-.45 1.16 1.47 1.47 0 0 1-1.11.49c-.78 0-1.37-.57-1.77-1.72-.28-.78-.7-1.16-1.26-1.16a3.83 3.83 0 0 0-2.39 1.36 6.34 6.34 0 0 0-1.8 2.83 16.35 16.35 0 0 0-.39 4v3.4c0 2 0 3.31.08 3.84a1.63 1.63 0 0 0 .67 1.21 3.74 3.74 0 0 0 2.08.42h.66v1.07h-10.13V70.4h.49a3.86 3.86 0 0 0 2-.38 1.56 1.56 0 0 0 .72-1.08c.07-.47.11-1.8.11-4v-5.39c0-2 0-3.33-.08-3.85a1.69 1.69 0 0 0-.66-1.21 3.64 3.64 0 0 0-2.08-.43h-.49V53a32 32 0 0 0 5.71-1.37 15.35 15.35 0 0 1 .73 4.88zM168 51.64v13.29q0 3 .09 3.84a1.64 1.64 0 0 0 .68 1.21 3.68 3.68 0 0 0 2.07.42h.48v1.07H161V70.4h.79a3.34 3.34 0 0 0 2.16-.48 1.88 1.88 0 0 0 .58-1.14c.05-.44.08-1.72.08-3.85v-5.77a15.5 15.5 0 0 0-.31-4.1 1.6 1.6 0 0 0-.84-.93 6.37 6.37 0 0 0-1.83-.18H161v-1.07a28.18 28.18 0 0 0 6.43-1.24zm-4.49-9.73a2.35 2.35 0 0 1 .71-1.72 2.38 2.38 0 0 1 3.41 0 2.53 2.53 0 0 1 0 3.47 2.38 2.38 0 0 1-3.41 0 2.37 2.37 0 0 1-.76-1.75zm28.43 11.55h-5.75V65a18 18 0 0 0 .23 3.57 2.62 2.62 0 0 0 1 1.48 2.7 2.7 0 0 0 1.62.56 3.5 3.5 0 0 0 2.91-1.91l.74.44a5 5 0 0 1-2.13 2.32 5.83 5.83 0 0 1-2.85.78 4.62 4.62 0 0 1-2.94-1 4.12 4.12 0 0 1-1.59-2.32 24.07 24.07 0 0 1-.31-4.65V53.46h-2.77V52.4a4.83 4.83 0 0 0 3.42-1.61 7.73 7.73 0 0 0 1.92-4.38h.75v6h5.75zm19.83 14.4l4.45-10.58a16.8 16.8 0 0 0 .95-2.59c0-.77-.86-1.18-2.59-1.21v-1.07h6.7v1.07a3.22 3.22 0 0 0-2.28.83 12 12 0 0 0-1.79 3.34l-8.52 20.49a15.39 15.39 0 0 1-2.14 4 2.69 2.69 0 0 1-2.05 1.06c-1 0-1.51-.46-1.51-1.37 0-1.06.8-2 2.41-2.69a7.77 7.77 0 0 0 1.9-1.07 4.7 4.7 0 0 0 .94-1.61l1.82-4.52-7.15-15.36a8.28 8.28 0 0 0-1.58-2.58 3.28 3.28 0 0 0-2.14-.54v-1.05h8.75v1.07c-1.53.05-2.3.37-2.3 1a9.83 9.83 0 0 0 .91 2.29zm19.69-14.26a2.46 2.46 0 0 1 .72-1.76 2.31 2.31 0 0 1 1.78-.76 2.49 2.49 0 0 1 2.51 2.52 2.37 2.37 0 0 1-.74 1.75 2.45 2.45 0 0 1-1.77.74 2.36 2.36 0 0 1-1.77-.75 2.43 2.43 0 0 1-.73-1.74zm0 16.13a2.53 2.53 0 0 1 2.5-2.5 2.42 2.42 0 0 1 1.78.74 2.39 2.39 0 0 1 .73 1.76 2.51 2.51 0 0 1-2.47 2.51 2.33 2.33 0 0 1-1.77-.76 2.47 2.47 0 0 1-.77-1.75zM288 72.24h-1l-5.7-15.13-5.82 15.13h-1l-5.86-15.15a12.74 12.74 0 0 0-1.49-3.1 2.76 2.76 0 0 0-2-.51v-1.07h8.71v1.07a5.08 5.08 0 0 0-2 .27 1 1 0 0 0-.53.92 12.23 12.23 0 0 0 .91 2.73l3.88 10.23 5.91-15.22h.99l5.73 15.22 4.2-10.84a9.6 9.6 0 0 0 .67-2.07c0-.77-.78-1.18-2.35-1.24v-1.07h6.19v1.07a3.42 3.42 0 0 0-1.75.43 3.66 3.66 0 0 0-1.18 1.83l-.51 1.35zM325.09 68h.85q-.21 4-3.9 4a3.54 3.54 0 0 1-2.49-.84 4.19 4.19 0 0 1-1.2-2.49 24.47 24.47 0 0 1-4.25 2.49 8.78 8.78 0 0 1-3.44.84 5.16 5.16 0 0 1-3.34-1.12 3.59 3.59 0 0 1-1.4-3 5.2 5.2 0 0 1 2.35-4.19 28.56 28.56 0 0 1 6.47-3.49l3.61-1.47v-.93a11.43 11.43 0 0 0-.25-2.8 3 3 0 0 0-1.33-1.59 5.18 5.18 0 0 0-2.83-.7q-3.49 0-3.9 2.33c-.24 1.59-.9 2.38-2 2.38s-1.42-.45-1.42-1.35.63-1.84 1.88-2.85 3.21-1.53 5.87-1.53a9.36 9.36 0 0 1 4.59.93 4.87 4.87 0 0 1 2.15 2.12 9.47 9.47 0 0 1 .52 3.63V66a12.86 12.86 0 0 0 .37 3.5 1.15 1.15 0 0 0 1.21.76q1.5 0 1.88-2.26zm-6.74-8.15l-2.54 1q-6 2.45-6 6.14a3.44 3.44 0 0 0 .77 2.36 2.5 2.5 0 0 0 2 .9 5.88 5.88 0 0 0 2.55-.72 18.88 18.88 0 0 0 3.24-2.16zm27.37-6.39H340V65a18 18 0 0 0 .23 3.57 2.62 2.62 0 0 0 1 1.48 2.7 2.7 0 0 0 1.62.56 3.52 3.52 0 0 0 2.91-1.91l.74.44a5 5 0 0 1-2.13 2.32 5.83 5.83 0 0 1-2.85.78 4.62 4.62 0 0 1-2.94-1 4.17 4.17 0 0 1-1.58-2.33 24.07 24.07 0 0 1-.31-4.65v-10.8h-2.76V52.4a4.83 4.83 0 0 0 3.42-1.61 7.73 7.73 0 0 0 1.92-4.38h.73v6h5.75zm26.52 5.42h-13.31q-.09 1.36-.09 2 0 5 1.57 7.54a5.19 5.19 0 0 0 4.7 2.52 6.15 6.15 0 0 0 6-3.79h1.11a6.5 6.5 0 0 1-3 3.71 9.27 9.27 0 0 1-9.4.12 9.74 9.74 0 0 1-3.53-3.46 10.13 10.13 0 0 1-1.29-5.38 10.91 10.91 0 0 1 2.66-7.51 8.53 8.53 0 0 1 6.64-3 7.39 7.39 0 0 1 5.8 2.29 7.79 7.79 0 0 1 2.14 4.96zm-4.07-1a7 7 0 0 0 .07-1 4 4 0 0 0-4.16-4.31c-2.83 0-4.51 1.76-5.06 5.27zm20.47-1.37a7.9 7.9 0 0 1 2.58-3.51 5.66 5.66 0 0 1 3.48-1.4 3.13 3.13 0 0 1 2.42 1 2.84 2.84 0 0 1 .88 1.95 1.64 1.64 0 0 1-.45 1.16 1.45 1.45 0 0 1-1.11.49c-.77 0-1.36-.57-1.77-1.72-.28-.78-.69-1.16-1.25-1.16a3.83 3.83 0 0 0-2.4 1.36 6.23 6.23 0 0 0-1.79 2.83 15.81 15.81 0 0 0-.4 4v3.4c0 2 0 3.31.08 3.84a1.63 1.63 0 0 0 .67 1.21 3.75 3.75 0 0 0 2.09.42h.65v1.07H382.2V70.4h.49a3.84 3.84 0 0 0 2-.38 1.56 1.56 0 0 0 .72-1.08c.07-.47.11-1.8.11-4v-5.39c0-2 0-3.33-.08-3.85a1.63 1.63 0 0 0-.66-1.21 3.62 3.62 0 0 0-2.07-.43h-.49V53a31.92 31.92 0 0 0 5.7-1.37 15.35 15.35 0 0 1 .72 4.88zm-368.11 2.1h-7.14a1.14 1.14 0 0 0-1.15 1.14v3.1A1.14 1.14 0 0 0 13.39 64h7.14a1.14 1.14 0 0 0 1.14-1.14v-3.1a1.14 1.14 0 0 0-1.14-1.15zm11.67-16l-1.6-3.17s.53-.31.77-.43.41-.27.09-.88-.69-.47-.69-.47-.46.26-1 .52a3 3 0 0 0-2.4-1.38h-1.75a1.08 1.08 0 0 0-.83.24 1.13 1.13 0 0 1-.88.35H11.84c-.12 0-.14-.07-.22-.12a1.72 1.72 0 0 0-1.89.21c-.19.21-1 1.14-1.4 1.65a2.25 2.25 0 0 1-1.16.71.45.45 0 0 0 0-.49L7 39l.25-.68.22-.12-.13-.31-.4.19c-.26.13-.26.25-.26.25-.12.43-.43.45-.43.45s-.69-1.3-.79-1.47-.28-.69-2.59.55-1.76 1.71-1.76 1.71l.78 1.52-.24.2.58 1.14a6.69 6.69 0 0 0-.65.4 1.76 1.76 0 0 0-1.01 1.56v33.25c0 2.5.72 3.64 3.51 3.64h25.43c1.64 0 3.21-.86 3.21-3.71V44.7c0-1.64-.31-1.7-.52-2.09zm-18.27-2.76h8.48a1.31 1.31 0 1 1 0 2.61h-8.48a1.31 1.31 0 1 1 0-2.61zM24.67 66s2.84 5 3.43 6.09c.79 1.5-.28 2.15-.28 2.15a1.61 1.61 0 0 1-2.15-.57c-.6-1.1-2.58-4.59-3.28-5.66-.91-1.39-1.29-1.86-2.5-1.86h-6c-1.22 0-1.61.47-2.52 1.86-.71 1.07-2.7 4.56-3.31 5.66a1.62 1.62 0 0 1-2.16.57s-1.08-.65-.29-2.15L9.08 66a4.51 4.51 0 0 0 .72-2v-5.53a4.51 4.51 0 0 0-.72-2s-2.85-4.94-3.45-6.08c-.79-1.5.29-2.14.29-2.14a1.64 1.64 0 0 1 2.16.57c.61 1.1 2.6 4.57 3.31 5.65.91 1.38 1.3 1.85 2.52 1.85h6c1.21 0 1.59-.47 2.5-1.85.7-1.08 2.68-4.55 3.28-5.65a1.62 1.62 0 0 1 2.15-.57s1.07.64.28 2.14c-.59 1.14-3.43 6.08-3.43 6.08a4.55 4.55 0 0 0-.71 2V64a4.55 4.55 0 0 0 .69 2z" fill="#6b7c93"/></svg>