<svg xmlns="http://www.w3.org/2000/svg" width="297" height="120" viewBox="0 0 297 120"><path d="M4.46 80.16h15C31.9 80.16 43 72.87 43 59.35c0-15.29-11.28-21-24.77-21H4.46v41.81m9.21-33.33h5.46c7.78 0 14.37 3.84 14.37 12.07 0 9.51-6.44 12.77-15 12.77h-4.83zm31.4 18.96c0 9.18 7.08 15 15.94 15s16-5.91 16-15-7.08-15-16-15-15.94 5.91-15.94 15m8.85 0A6.73 6.73 0 0 1 60 58.53h1a6.7 6.7 0 0 1 7.09 6.3 6.15 6.15 0 0 1 0 1 6.73 6.73 0 0 1-6.15 7.27 7.22 7.22 0 0 1-.93 0 6.71 6.71 0 0 1-7.1-6.3 8 8 0 0 1 0-1m51.75-11.21a14.35 14.35 0 0 0-10.23-3.84c-8.88 0-15.94 5.91-15.94 15s7.09 15 15.94 15a14.35 14.35 0 0 0 10.23-3.84l-5.86-6.23a5.67 5.67 0 0 1-4.32 2.19 6.71 6.71 0 0 1-7.1-6.3 6.44 6.44 0 0 1 0-1 6.71 6.71 0 0 1 6.12-7.25 6.15 6.15 0 0 1 1 0 5.49 5.49 0 0 1 4.32 2.19l5.86-6.13m30.24-2.84H127v14.3c0 3.74-.7 7.33-5.32 7.33s-4.59-4.31-4.59-7.48V51.54h-8.88v15.72c0 7.68 1.65 13.59 10.65 13.59a9.27 9.27 0 0 0 8.39-4.61v3.89h8.63V51.37m2.31 26.32h14.04v2.89h-14.04zm20.57 0h14.04v2.89h-14.04zm20.61 0h14.04v2.89h-14.04zm20.58 0h14.04v2.89h-14.04zm20.58 0h14.04v2.89h-14.04zm20.57 0h14.04v2.89H241.1zm20.58 0h14.04v2.89h-14.04zm20.58 0h14.04v2.89h-14.04z" fill="#6b7c93"/><path d="M216.66 73.4c-1.52-1.53 13.87-13.82 18.51-13.2-1.77 5.34-17 14.72-18.51 13.2m18.11 5.11a86.35 86.35 0 0 0 7.93-19.11c0-3.46-3.14-5.29-6.53-5.29-11.15 0-29.14 19-32.93 19-4.32 0 2.29-9.1 2.29-12.67 0-2.37-2.12-4.81-3.81-4.81-3.29 0-13.7 10-20.51 12.17a15.3 15.3 0 0 0 2.3-6.84c0-12.17-34.5-7.48-34.5-14.36 0-6.14 21.58-16.72 34.22-16.72 1.78 0 13.42.78 13.42 4.82 0 1.52-2.49 2-2.49 3.54S195.43 40 197 40a4.11 4.11 0 0 0 3.81-4.4v-.16c0-10.33-9-12.48-16.22-12.48-18.68 0-40.81 16.22-40.81 23.58 0 9.62 31.43 7.85 31.43 16.48 0 10.38-33.7 19.76-33.7 22.3s1.8 2.3 3.82 2.3c13.69 0 49.66-22.82 52.71-25.87.25 5.32-2 10.38-2 12.65s1.75 5.36 4.32 5.36S206.63 76 212.22 73c-.25 1.77 1.27 4.56 3.29 4.56 4.32 0 17.46-10.65 20-12.47A30 30 0 0 1 230 77.51a16.57 16.57 0 0 0-4.32-.55C220.43 77 206 92.28 206 99.41c0 2.8 1.52 5.59 4.31 5.59 3.87 0 17.84-11.5 23-23.22 2.27.25 6 1.94 6 .15s-2.49-3-4.44-3.5M211.5 98.94c-.9 0-1.45-.4-1.45-2.5 0-6.51 13.57-15.74 18.28-15.74-2.74 6.17-14.33 18.24-16.83 18.24m-4.39-57.37a3.17 3.17 0 1 1 3.16 3.17 3.16 3.16 0 0 1-3.16-3.17m42.4 24.57c-1.77 2.29-6.33 7.48-6.33 9.63s1 3.29 2.49 3.29c3.79 0 16.21-15 22.05-15 4.32 0-2.77 15.47 6.61 15.47 3.39 0 14.74-7.49 14.74-11.85 0-.77-.8-2.1-1.82-2.1-.6 0-8.35 9.38-11.65 9.38-2.79 0 0-5.81 0-9.63S275 58 271 58c-5.32 0-13 6.83-14.69 7.85a6.73 6.73 0 0 0 1-3.29 5.14 5.14 0 0 0-4.57-4.32c-1.74 0-11.12 4.82-11.12 11 0 1.52 5.56-3.87 7.83-3.09m39.12 28.7h1.1v-2.5h.8l1.55 2.5h1.14l-1.54-2.5a1.44 1.44 0 0 0 1.46-1.43 1.49 1.49 0 0 0 0-.21c0-1.15-.67-1.8-2.09-1.8h-2.3v6m1.1-5h.8c.67 0 1.45 0 1.45.83s-.75.82-1.45.82h-.8zM285.46 92a5.21 5.21 0 1 0 5.28-5.13 5.21 5.21 0 0 0-5.21 5.13m.92 0a3.05 3.05 0 1 1-.12.13V92" fill="#6b7c93"/></svg>