<svg xmlns="http://www.w3.org/2000/svg" width="72" height="72" viewBox="0 0 72 72"><path fill="#43458b" d="M0 0h72v72H0z"/><path d="M36.32 9.67l.64 2H39a.29.29 0 0 1 .17.53l-1.64 1.2.64 2a.29.29 0 0 1-.45.33L36 14.49l-1.68 1.22a.3.3 0 0 1-.46-.33l.65-2-1.69-1.22a.29.29 0 0 1 .18-.53h2.08l.64-2a.29.29 0 0 1 .6.04zm0 46.77l.64 2H39a.29.29 0 0 1 .17.53l-1.68 1.23.64 2a.29.29 0 0 1-.45.33L36 61.25l-1.68 1.22a.3.3 0 0 1-.46-.33l.65-2-1.69-1.23a.29.29 0 0 1 .18-.53h2.08l.64-2a.29.29 0 0 1 .6.06zm-11.46-43.6l.65 2h2.08a.29.29 0 0 1 .17.53l-1.68 1.22.64 2a.29.29 0 0 1-.45.33l-1.69-1.22-1.68 1.18a.29.29 0 0 1-.45-.33l.64-2-1.68-1.22a.29.29 0 0 1 .17-.53h2.08l.65-2a.29.29 0 0 1 .55.04zm23.39 40.5l.64 2H51a.29.29 0 0 1 .17.53l-1.68 1.22.64 2a.29.29 0 0 1-.45.33L48 58.16l-1.69 1.22a.29.29 0 0 1-.45-.33l.64-2-1.68-1.22a.29.29 0 0 1 .17-.53H47l.65-2a.29.29 0 0 1 .6.04zM13.07 23.23h2.08l.65-2a.29.29 0 0 1 .55 0l.65 2h2.08a.29.29 0 0 1 .17.53L17.57 25l.64 2a.29.29 0 0 1-.45.33l-1.69-1.22-1.68 1.22a.29.29 0 0 1-.45-.33l.64-2-1.68-1.24a.29.29 0 0 1 .17-.53zm40.5 23.38h2.08l.64-2a.29.29 0 0 1 .56 0l.64 2h2.08a.29.29 0 0 1 .18.53l-1.69 1.23.65 2a.3.3 0 0 1-.46.33l-1.68-1.22-1.68 1.22a.29.29 0 0 1-.45-.33l.64-2-1.68-1.23a.29.29 0 0 1 .17-.53zM9.94 34.82H12l.64-2a.29.29 0 0 1 .56 0l.64 2h2.08a.3.3 0 0 1 .18.54l-1.69 1.22.65 2a.3.3 0 0 1-.46.32l-1.68-1.22-1.68 1.22a.29.29 0 0 1-.45-.32l.64-2-1.66-1.22a.3.3 0 0 1 .17-.54zm46.76 0h2.08l.65-2a.29.29 0 0 1 .55 0l.65 2h2.08a.3.3 0 0 1 .17.54l-1.68 1.22.64 2a.29.29 0 0 1-.45.32l-1.69-1.24-1.7 1.22a.29.29 0 0 1-.45-.32l.64-2-1.68-1.22a.3.3 0 0 1 .19-.52zM13.89 50.09l.64-2-1.68-1.23a.29.29 0 0 1 .17-.53h2.08l.65-2a.29.29 0 0 1 .55 0l.65 2H19a.29.29 0 0 1 .17.53l-1.68 1.23.64 2a.29.29 0 0 1-.45.33L16 49.2l-1.69 1.22a.29.29 0 0 1-.42-.33zm40.5-23.38l.64-2-1.68-1.22a.29.29 0 0 1 .17-.53h2.08l.64-2a.29.29 0 0 1 .56 0l.64 2h2.08a.29.29 0 0 1 .18.53L58 24.73l.65 2a.3.3 0 0 1-.46.33l-1.68-1.22L54.84 27a.29.29 0 0 1-.45-.29zM22.34 58.46l.64-2-1.68-1.2a.29.29 0 0 1 .17-.53h2.08l.65-2a.29.29 0 0 1 .55 0l.65 2h2.08a.29.29 0 0 1 .17.53L26 56.48l.64 2a.29.29 0 0 1-.45.33l-1.68-1.22-1.69 1.22a.29.29 0 0 1-.48-.35zM45.72 18l.64-2-1.68-1.23a.29.29 0 0 1 .18-.53h2.07l.65-2a.29.29 0 0 1 .56 0l.64 2h2.08a.29.29 0 0 1 .17.53L49.35 16l.65 2a.29.29 0 0 1-.45.33l-1.68-1.22-1.69 1.22a.29.29 0 0 1-.46-.33z" fill="#fcd669"/></svg>