<svg xmlns="http://www.w3.org/2000/svg" width="242" height="120" viewBox="0 0 242 120"><path d="M45.59 47.15C44 39 38.54 33.09 28.69 33h-.43c-11.24.07-19.58 5.71-24 14.15A33 33 0 0 0 .63 62.56c0 10.83 6 17.65 13.69 19.56a18.67 18.67 0 0 0 4.56.55 20.86 20.86 0 0 0 5-.55 13.77 13.77 0 0 0 7.69-4.79v4.3a1.06 1.06 0 0 0 0 .19.51.51 0 0 0 .43.3h6.65a.62.62 0 0 0 .23-.07.5.5 0 0 0 .22-.31l4.59-23.48a.59.59 0 0 0 0-.13.5.5 0 0 0-.5-.5H26.5a.5.5 0 0 0-.5.37l-1.26 6.36v.09a.65.65 0 0 0 0 .2.49.49 0 0 0 .46.3h8.42c-1.81 5-6 9.37-12.7 9.37S10 69.49 10 61.24a22.24 22.24 0 0 1 4.72-14.09 15.37 15.37 0 0 1 12.07-5.82c4.67 0 7.39 2.13 9.21 5.82a21.88 21.88 0 0 1 1.19 3 .5.5 0 0 0 .46.31h.14l7.55-2a.35.35 0 0 0 .14-.06.5.5 0 0 0 .24-.43v-.08c0-.24-.09-.49-.14-.73m18.5-13.66a.5.5 0 0 0-.5-.5h-7.66a.5.5 0 0 0-.49.42l-2.66 13.73-6.65 34.36v.11a.41.41 0 0 0 0 .19.5.5 0 0 0 .46.31h7.65a.49.49 0 0 0 .49-.37l6.69-34.6 2.63-13.57v-.08M88 47.15a18.24 18.24 0 0 0-4.55-.55 24.45 24.45 0 0 0-5.46.55 18.36 18.36 0 0 0-8.83 5c-4.16 4-6 9.16-6 15.75 0 6.84 3.95 12.48 10.71 14.22a18.26 18.26 0 0 0 4.56.55 24 24 0 0 0 5.57-.55 18.3 18.3 0 0 0 8.82-5c4.16-4 6-9.15 6-15.74 0-6.85-4-12.5-10.71-14.23m-1.17 24.42a9.18 9.18 0 0 1-7.7 3.75c-4.09 0-6.8-3.33-6.8-8.74 0-3.75.83-6.66 2.57-8.88a9.18 9.18 0 0 1 7.7-3.7c4.09 0 6.8 3.33 6.8 8.74 0 3.75-.84 6.66-2.57 8.88m40.55-19.44c-1.17-2.28-3.81-4.14-6.87-5a13.71 13.71 0 0 0-3.84-.55 17.08 17.08 0 0 0-4.44.55 9.88 9.88 0 0 0-7.77 10.13c0 4.65 3.06 7.36 7.15 9.3s6 3.12 6 5.13c0 2.5-2.09 3.61-4.44 3.61-3.31 0-5.67-2-6.66-5.45a.52.52 0 0 0-.48-.34.65.65 0 0 0-.19 0l-6.44 2.68a.5.5 0 0 0-.31.46v.08a12.86 12.86 0 0 0 8.94 9.33 15.21 15.21 0 0 0 4.15.55 20.69 20.69 0 0 0 4.91-.55c5.3-1.31 8.83-5 8.83-11.59 0-4.85-3.61-7.21-7.21-8.88-2.36-1.11-6-2.15-6-4.58a3.1 3.1 0 0 1 3.4-3.12 6.21 6.21 0 0 1 5.08 2.64.51.51 0 0 0 .4.2.59.59 0 0 0 .26-.07l5.39-3.88a.47.47 0 0 0 .13-.61m21.72-5.07a13.82 13.82 0 0 0-3.84-.55 17.16 17.16 0 0 0-4.45.55 9.88 9.88 0 0 0-7.76 10.13c0 4.65 3 7.36 7.15 9.3 3.95 1.87 6 3.12 6 5.13 0 2.5-2.08 3.61-4.44 3.61-3.31 0-5.68-2-6.67-5.47a.49.49 0 0 0-.46-.32.46.46 0 0 0-.2 0l-6.43 2.67a.49.49 0 0 0-.3.46.38.38 0 0 0 0 .1 12.86 12.86 0 0 0 8.93 9.31 15.34 15.34 0 0 0 4.16.55 20.54 20.54 0 0 0 4.9-.55c5.3-1.31 8.84-5 8.84-11.59 0-4.85-3.61-7.21-7.22-8.88-2.36-1.11-6-2.15-6-4.58a3.1 3.1 0 0 1 3.4-3.12 6.21 6.21 0 0 1 5.07 2.63.49.49 0 0 0 .41.21.59.59 0 0 0 .26-.07l5.45-3.88a.54.54 0 0 0 .17-.39.51.51 0 0 0-.05-.22c-1.17-2.29-3.81-4.15-6.87-5m22.37-.03H164a.51.51 0 0 0-.48.36l-6.6 34a.36.36 0 0 0 0 .11.58.58 0 0 0 0 .19.51.51 0 0 0 .46.31H165a.59.59 0 0 0 .26-.07.48.48 0 0 0 .22-.3l6.62-34.06a.51.51 0 0 0-.5-.5m27.01-.04a17.06 17.06 0 0 0-4.43-.55 22.61 22.61 0 0 0-5 .55 20.25 20.25 0 0 0-15.74 20.05c0 8 4.28 13.28 10.55 14.92a17.18 17.18 0 0 0 4.43.55 22.71 22.71 0 0 0 5.19-.55c4.87-1.13 8.42-4 11.72-8.79a.5.5 0 0 0-.17-.68l-6-3.11a.46.46 0 0 0-.2-.05.5.5 0 0 0-.38.19c-2.51 3.61-5.38 5.64-9.35 5.64-4.58 0-7.08-3.19-7.08-6.8v-1.11h24.74a.59.59 0 0 0 .26-.07.52.52 0 0 0 .22-.28 24.8 24.8 0 0 0 .87-6.45c0-6.46-3.3-11.78-9.59-13.46m-14.88 13.46a10.29 10.29 0 0 1 9.3-6.66c4.37 0 6.38 2.29 6.66 6.66zM236.2 55a.48.48 0 0 0 .24.06.48.48 0 0 0 .26-.07.52.52 0 0 0 .2-.24l2.55-6.75a.65.65 0 0 0 0-.2.51.51 0 0 0-.31-.46l-.47-.17a9.71 9.71 0 0 0-3.59-.55 12.6 12.6 0 0 0-3.74.55 14.75 14.75 0 0 0-7.22 5.21l.91-4.59a.48.48 0 0 0-.48-.62h-7.65a.5.5 0 0 0-.49.41l-6.61 34a.19.19 0 0 0 0 .08.41.41 0 0 0 0 .19.5.5 0 0 0 .46.31H218a.59.59 0 0 0 .26-.07.5.5 0 0 0 .22-.31l2.36-12c2.08-11 8-15.4 12.35-15.4a6.57 6.57 0 0 1 3 .66m-66.85-21.5a4.93 4.93 0 1 0 4.93 4.93 4.83 4.83 0 0 0-4.93-4.93m67.31 39.4a4.95 4.95 0 0 0-2.55 9.18 5.17 5.17 0 0 0 5.09 0 4.95 4.95 0 0 0-2.54-9.18" fill="#6b7c93"/></svg>