<svg xmlns="http://www.w3.org/2000/svg" width="72" height="72" viewBox="0 0 72 72"><circle cx="36" cy="36" r="36" fill="#aff1b6"/><rect x="17" y="45" width="5.88" height="12" rx="1.5" ry="1.5" fill="#3ecf8e"/><rect x="25.03" y="44" width="5.88" height="13" rx="1.5" ry="1.5" fill="#3ecf8e"/><rect x="33.06" y="41" width="5.88" height="16" rx="1.5" ry="1.5" fill="#3ecf8e"/><rect x="41.09" y="36" width="5.88" height="21" rx="1.5" ry="1.5" fill="#3ecf8e"/><rect x="49.12" y="31" width="5.88" height="26" rx="1.5" ry="1.5" fill="#3ecf8e"/><path d="M18 39.71a46 46 0 0 0 16-8.08 52 52 0 0 0 11.83-13A4.06 4.06 0 1 1 52.7 23c-.1.15-.21.3-.32.44A58.89 58.89 0 0 1 37.07 36.2a50.2 50.2 0 0 1-18.49 6.33 1.44 1.44 0 0 1-.58-2.81z" fill="#159570"/><path d="M55.09 27.59V16a1 1 0 0 0-1-1H42.5a1 1 0 0 0-.71 1.71l11.59 11.58a1 1 0 0 0 1.71-.7z" fill="#159570"/></svg>