<svg xmlns="http://www.w3.org/2000/svg" width="90" height="50" viewBox="0 0 90 50"><path d="M25.3 27.78h8.12v13.48H25.3zM34 21a4.6 4.6 0 1 1-4.6-4.6A4.59 4.59 0 0 1 34 21z"></path><path d="M48.8 2.91H19.67v44.18H48.8c6.36-.09 11.4-1.67 15-4.71 4.35-3.7 6.55-9.55 6.55-17.37a27.05 27.05 0 0 0-1.72-10 18.17 18.17 0 0 0-4.83-6.93C60.11 4.8 54.93 3 48.8 2.92zm-.55 2.94c5.64 0 10.35 1.53 13.6 4.42C65.53 13.54 67.4 18.5 67.4 25c0 12.89-6.27 19.15-19.15 19.15H22.6V5.85z"></path><path opacity=".5" d="M53.38 22.06h1.49c-.14-.36-.53-1.41-.75-2-.23.59-.61 1.64-.74 2zM39 23.73a1.15 1.15 0 0 0 .54-.27 1.45 1.45 0 0 0 .34-.64 4.8 4.8 0 0 0 .12-1.34 4.27 4.27 0 0 0-.15-1.3 1.51 1.51 0 0 0-.38-.65 1.26 1.26 0 0 0-.62-.31 6.59 6.59 0 0 0-1.23-.07h-.46v4.65h.92a3.68 3.68 0 0 0 .92-.07z"></path><path opacity=".5" d="M59.1 25.52v-8h2v6.28h3.6C64 12.52 55.24 9.42 47 9.42h-9.85v8h1.05a5.45 5.45 0 0 1 1.52.16 2.75 2.75 0 0 1 1.24.76 3.61 3.61 0 0 1 .78 1.32 5.73 5.73 0 0 1 .26 1.89 5.41 5.41 0 0 1-.24 1.7 3.54 3.54 0 0 1-.88 1.43 2.76 2.76 0 0 1-1.17.66 4.66 4.66 0 0 1-1.43.18h-1.13v15.75H47c8.56 0 17.67-2.57 17.73-15.75zm-9.53 0h-6.24v-8.09h6.1v1.72H45.3v1.28h3.84v1.72H45.3v1.65h4.27zm6.62 0l-.67-1.74h-2.77l-.63 1.74H50l3.14-8.09h1.96l3.23 8.09z"></path></svg>