<svg xmlns="http://www.w3.org/2000/svg" width="299" height="120" viewBox="0 0 299 120"><path d="M35.88 50.19c3.54 3.55 6.43 9.37 4.77 12.83C36.22 72.27 3.19 88.48.39 85.68S13.81 49.83 23.06 45.4c3.46-1.66 9.27 1.24 12.83 4.78zm17.5-3.9c-.58-2.13-2-4.28-4.23-4.54-4-.46-10.34 6.63-9.89 8.32s9.39 4.65 12.74 2.25c1.72-1.24 2-3.91 1.4-6zM41 26.63c3 .8 6 2.86 6.35 5.93.65 5.62-9.35 14.49-11.7 13.86s-6.52-13.16-3.16-17.84c1.74-2.42 5.48-2.76 8.47-2zm88.88 33.31l-3-.45c-2.81-.42-4.44-1.33-4.44-3 0-1.9 2.12-3.09 5.26-3.09a12.3 12.3 0 0 1 5.75 1.72l.34.17a2.82 2.82 0 0 0 3.74-1.15l.24-.43a2.88 2.88 0 0 0-1.23-4 18.88 18.88 0 0 0-8.84-2.4c-7.52 0-12.37 3.64-12.37 9.48 0 4.8 3.45 7.8 10 8.7l3 .38c3.14.45 4.68 1.38 4.68 2.85s-.74 3.18-5.62 3.18a14.37 14.37 0 0 1-7.64-2.09 2.74 2.74 0 0 0-1.47-.43 2.87 2.87 0 0 0-2.41 1.35l-.17.27a2.91 2.91 0 0 0-.34 2.25 2.79 2.79 0 0 0 1.35 1.76 24 24 0 0 0 10.68 3c7.84 0 12.69-3.44 12.69-9.48 0-4.84-3.43-7.61-10.2-8.58zM221 70.49a3 3 0 0 0-3.85-.52 9.39 9.39 0 0 1-5 1.55c-4.71 0-8.13-3.72-8.13-8.84s3.42-8.85 8.13-8.85a8.59 8.59 0 0 1 4.85 1.51 3.06 3.06 0 0 0 3.84-.46l.25-.26A3.28 3.28 0 0 0 222 52a3.19 3.19 0 0 0-1.41-2.31 15 15 0 0 0-8.3-2.35c-9 0-15.36 6.32-15.36 15.36S203.22 78 212.26 78a14.88 14.88 0 0 0 8.35-2.4 3.25 3.25 0 0 0 1.39-2.26 3.31 3.31 0 0 0-.82-2.6l-.22-.25zM74.69 36.94a4.17 4.17 0 0 0-4.19 4.25 4.1 4.1 0 0 0 4.19 4.19 4.22 4.22 0 0 0 .09-8.44zM76 47.57h-2.51a2.2 2.2 0 0 0-2.2 2.2v25.32a2.19 2.19 0 0 0 2.2 2.19H76a2.2 2.2 0 0 0 2.2-2.19V49.77a2.21 2.21 0 0 0-2.2-2.2zm81.26 23.82a6 6 0 0 1-6-6V54h6a2.2 2.2 0 0 0 2.2-2.2v-2a2.21 2.21 0 0 0-2.2-2.2h-6V41a2.19 2.19 0 0 0-2.26-2.21h-2.6a2.19 2.19 0 0 0-2.19 2.21v24c0 6.91 5.24 13 12.5 13a2.73 2.73 0 0 0 2.73-2.72v-1.69a2.22 2.22 0 0 0-2.22-2.2zm-60-24.07a13.33 13.33 0 0 0-13.68 13v14.77a2.19 2.19 0 0 0 2.19 2.19h2.51a2.19 2.19 0 0 0 2.19-2.19V61.47c0-4.56 2.76-7.58 6.79-7.58s6.79 3 6.79 7.58v13.62a2.2 2.2 0 0 0 2.2 2.19h2.5a2.19 2.19 0 0 0 2.2-2.19V60.36a13.33 13.33 0 0 0-13.69-13zm180.74.31a30.6 30.6 0 0 0-4.57-.31h-.33a13.17 13.17 0 0 0-13.1 13.2v14.57a2.2 2.2 0 0 0 2.2 2.19h2.5a2.19 2.19 0 0 0 2.2-2.19V60.77a6.54 6.54 0 0 1 6.61-6.88 12.61 12.61 0 0 1 2.08.23 3 3 0 0 0 3.5-2.25l.43-1.8a2 2 0 0 0-.25-1.54 2 2 0 0 0-1.28-.9zM296.33 54a2.19 2.19 0 0 0 2.2-2.2v-2a2.2 2.2 0 0 0-2.2-2.2h-6V41a2.19 2.19 0 0 0-2.2-2.19h-2.63a2.2 2.2 0 0 0-2.2 2.19v24c0 6.91 5.25 13 12.51 13a2.68 2.68 0 0 0 1.92-.8 2.72 2.72 0 0 0 .8-1.92v-1.69a2.22 2.22 0 0 0-2.22-2.2 6 6 0 0 1-6-6V54zm-47.77-4.29a15 15 0 0 0-8.31-2.35h-.32a15 15 0 0 0-8.3 2.35c-4.17 2.62-6.72 7.26-6.72 13 0 6 2.79 10.81 7.32 13.35a14.3 14.3 0 0 0 7.32 2 11.29 11.29 0 0 0 8.85-4v1a2.19 2.19 0 0 0 2.2 2.2h2.5a2.19 2.19 0 0 0 2.19-2.2V62.68c0-5.74-2.54-10.38-6.71-13zm-5.72 21.38a8.89 8.89 0 0 1-2.61.46h-.47a8.54 8.54 0 0 1-2.43-.45c-3.24-1.14-5.39-4.32-5.39-8.38 0-4.8 3-8.37 7.24-8.8H241c4.24.43 7.24 4 7.24 8.8-.01 4.02-2.16 7.2-5.4 8.34zm-56.77-21.41a15 15 0 0 0-8.3-2.35h-.32a15 15 0 0 0-8.31 2.35c-4.17 2.62-6.71 7.26-6.71 13 0 6 2.79 10.81 7.32 13.35A14.24 14.24 0 0 0 177 78a11.25 11.25 0 0 0 8.85-4v1a2.2 2.2 0 0 0 2.2 2.2h2.5a2.19 2.19 0 0 0 2.2-2.2V62.68c0-5.74-2.55-10.38-6.72-13zm-5.71 21.38a9 9 0 0 1-2.61.46h-.48a8.6 8.6 0 0 1-2.43-.45c-3.24-1.14-5.39-4.32-5.39-8.38 0-4.8 3-8.37 7.25-8.8h1.8c4.25.43 7.24 4 7.24 8.8 0 4.06-2.15 7.24-5.38 8.38z" fill="#6b7c93"/></svg>