<svg xmlns="http://www.w3.org/2000/svg" width="239" height="120" viewBox="0 0 239 120"><path d="M4.21 86.4V33.31h8.94l4 28.85.86 9.52.87-9.52 4-28.85h9.02V86.4h-5.19V42.83l-.87 7.22-5.19 36.35h-5.19l-5.2-36.93-.57-6.64V86.4zm35.79 0h6V33.31h-6zm114.24 0h6.06V33.31h-6.06zm46.16-24h5.48v-6.01h-5.48v-17h9.23v-6.08h-15.31V86.4h15.29v-6.06h-9.23zm-60-29.14v44.19a2.89 2.89 0 1 1-5.77 0V33.31h-6.34v44.14a9.23 9.23 0 1 0 18.46 0V33.31zm40.11 44.14V42.55a2.9 2.9 0 0 0-2.89-2.89h-2.88v41h2.88a3.68 3.68 0 0 0 2.89-3.18zm-3.21-44.09a9.12 9.12 0 0 1 9.23 9.24v34.9a9.12 9.12 0 0 1-9.23 9.24h-9.23V33.31h9.23m51.64 44.14v-34.9a2.89 2.89 0 0 0-2.88-2.89h-2.89v41h2.89a3.67 3.67 0 0 0 2.88-3.18zm-2.88-44.14a9.06 9.06 0 0 1 8.94 9.24v34.9a9.12 9.12 0 0 1-9.23 9.24h-9.23V33.31h9.52M89.31 57.55c-2.88-2.6-5.19-4.91-5.19-9.23v-5.77A2.89 2.89 0 0 1 87 39.66a3.1 3.1 0 0 1 2.89 2.89v6.05H96v-6.05a9.24 9.24 0 1 0-18.47 0v6.05c.58 6.93 4.62 10.68 7.5 13.56 2.89 2.6 5.2 4.91 5.2 9.24v6a2.89 2.89 0 1 1-5.77 0v-8.89h-6.11v8.94a9.23 9.23 0 1 0 18.46 0v-6c-.57-7.22-4.32-10.68-7.5-13.85m-25.1 0C61.33 55 59 52.64 59 48.32v-5.77a2.89 2.89 0 1 1 5.77 0v6.05h6.06v-6.05a9.24 9.24 0 1 0-18.47 0v6.05c0 6.93 4 10.68 6.93 13.56 2.88 2.6 5.19 4.91 5.19 9.24v6a2.89 2.89 0 0 1-2.88 2.89 3.1 3.1 0 0 1-2.89-2.89v-8.89h-5.46v8.94a9.23 9.23 0 1 0 18.46 0v-6c-.28-7.22-4.32-10.68-7.5-13.85m56.84-9.23v-5.82a9.24 9.24 0 1 0-18.47 0v34.9a9.45 9.45 0 0 0 9 9.24 6.63 6.63 0 0 0 6.34-4l2.89 4V62.45h-9.23v6.06h2.88v8.94a2.73 2.73 0 0 1-2.88 2.89 2.89 2.89 0 0 1-2.89-2.89v-34.9a2.9 2.9 0 0 1 2.89-2.89 3.1 3.1 0 0 1 2.88 2.89v6.05h6.64z" fill="#6b7c93"/></svg>