<svg xmlns="http://www.w3.org/2000/svg" width="72" height="72" viewBox="0 0 72 72"><path fill="#24b47e" d="M0 0h72v72H0z"/><path d="M15 34h9.54c4.08 0 6.92 2 6.92 5.53s-2.68 5.68-6.9 5.68h-4.08V51H15zm5.49 7.48h3.19c1.49 0 2.35-.6 2.35-1.9 0-1.09-.65-1.87-2.35-1.87h-3.2zM51 45.25c-.78 3.57-3.64 6.14-9.09 6.14-6.29 0-9.44-4-9.44-8.88 0-4.64 3.1-8.85 9.67-8.85 5.74 0 8.46 3 8.9 6.07h-5.61c-.24-.94-.94-2.33-3.36-2.33-2.58 0-3.84 2-3.84 5 0 2.71 1 5.2 3.85 5.2a3.08 3.08 0 0 0 3.38-2.34zM58 34v17h-5.55V34zM44.31 13.17L31.85 25.92l-3.38-3.83a1.75 1.75 0 0 0-2.74 2.13l4 6.8a2.13 2.13 0 0 0 3.59 0C34 30.17 46 15.08 46 15.08c1.48-1.7-.42-3.18-1.69-1.91z" fill="#fff"/></svg>