<svg xmlns="http://www.w3.org/2000/svg" width="302" height="120" viewBox="0 0 302 120"><path d="M50.58 37.7l6.2-10.8a6.59 6.59 0 0 0-11.4-6.6l-6.2 10.8a30.38 30.38 0 0 0-37.7 39L13 50.2A19.53 19.53 0 0 1 25 41a19.26 19.26 0 0 1 15 2 19.76 19.76 0 1 1-19.8 34.2l6.6-11.5a6.59 6.59 0 1 0-2.4-9l-21 36.4a6.59 6.59 0 1 0 11.4 6.6L21 88.9a30.31 30.31 0 0 0 29.6-51.2zm38.1 7.8h-10.2v29h6V65h4.2c5.9 0 10.8-3 10.8-9.8s-4.9-9.7-10.8-9.7zm-.2 14.2h-4.1v-9h4.1c2.8 0 4.8 1.3 4.8 4.5s-1.9 4.5-4.8 4.5zm25.7 2.9h11.6v-5.1h-11.6v-6.7h13.2v-5.3h-19.2v29h19.8v-5.2h-13.8v-6.7zm29.8-17.1h-6v29h19.1v-5.2h-13.1V45.5zm34.8-.4a14.9 14.9 0 1 0 15 14.9 14.71 14.71 0 0 0-15-14.9zm0 24.5c-5.3 0-8.9-4.2-8.9-9.6s3.6-9.6 8.9-9.6 8.9 4.2 8.9 9.6-3.6 9.6-8.9 9.6zm21.4-18.9h8.3v23.8h6V50.7h8.3v-5.3h-22.6v5.3zm44-5.6a14.9 14.9 0 1 0 15 14.9 14.71 14.71 0 0 0-15-14.9zm-.1 24.5c-5.3 0-8.9-4.2-8.9-9.6s3.6-9.6 8.9-9.6S253 54.6 253 60s-3.52 9.6-8.92 9.6zM287 57.7c0 2 .4 5.3.4 5.3a37.92 37.92 0 0 0-3.4-4l-14.6-13.8h-.6v29.3h5.5V62.3c0-2.1-.4-5.3-.4-5.3s2.1 2.6 3.5 4L292 74.8h.6V45.5H287zm12.9-20.55a1.18 1.18 0 0 0-1.3-1.2h-1.5a.22.22 0 0 0-.2.2h-.2v3.7a.22.22 0 0 0 .2.2h.3a.22.22 0 0 0 .2-.2v-1.3h.8l.6 1.3a.35.35 0 0 0 .2.1h.4c.2 0 .3-.2.2-.3-.2-.5-.4-.9-.6-1.3a1.23 1.23 0 0 0 .9-1.2zm-1.3.6h-1v-1.2h1a.53.53 0 0 1 .6.6.58.58 0 0 1-.6.6z" fill="#6b7c93"/><path d="M298.2 34.05a3.86 3.86 0 0 0-3.8 3.8 3.8 3.8 0 1 0 3.8-3.8zm0 7.1A3.29 3.29 0 0 1 295 38a3.2 3.2 0 1 1 3.2 3.2z" fill="#6b7c93"/></svg>