<svg xmlns="http://www.w3.org/2000/svg" viewBox="0 0 1125 2001"><defs><linearGradient id="a" x1="1123.65" y1="-.76" x2="1.35" y2="2001.76" gradientUnits="userSpaceOnUse"><stop offset="0" stop-color="#fff"/><stop offset=".48" stop-color="#fff" stop-opacity="0"/><stop offset=".52" stop-color="#6b7c93" stop-opacity="0"/><stop offset="1" stop-color="#6b7c93"/></linearGradient></defs><path fill="#f6f9fc" d="M0 0h1125v2001H0z"/><rect x="57" y="798.28" width="1011" height="27" rx="6" ry="6" fill="#cfd7df"/><rect x="57" y="858.28" width="681" height="27" rx="6" ry="6" fill="#cfd7df"/><rect x="981" y="661.78" width="87" height="27" rx="6" ry="6" fill="#7795f8"/><rect x="57" y="540.28" width="378" height="27" rx="6" ry="6" fill="#aab7c4"/><path fill="#cfd7df" d="M0 174h1125v273H0z"/><rect x="412.5" y="336" width="300" height="27" rx="6" ry="6" fill="#fff" opacity=".5"/><rect x="247.5" y="276" width="630" height="27" rx="6" ry="6" fill="#fff"/><path fill="#525f7f" opacity=".3" d="M0 6h1125v192H0z"/><path fill="#fff" d="M0 0h1125v192H0z"/><rect x="30" y="114" width="165" height="27" rx="6" ry="6" fill="#8898aa" opacity=".7"/><path d="M437.68 114.29c0-8.27-7-14.22-18.15-14.22-15 0-25.9 11-25.9 25.9s11 25.9 25.9 25.9c11.14.1 18.15-5.84 18.15-14.22 0-5.52-2.76-9.34-8.28-11.68 5.52-2.34 8.28-6.05 8.28-11.68zm43.09 11.57l5.63-7.64a11.3 11.3 0 0 0-9.34-18 11.87 11.87 0 0 0-9.56 4.88l-2.65 3.82a11.14 11.14 0 0 0-11.14-8.81 11.46 11.46 0 0 0-11.57 11.35.81.81 0 0 0 0 .22v28.77A11.52 11.52 0 0 0 453.62 152h.09c5.62 0 10-3.39 11-8.38l2.44 3.4a11.81 11.81 0 0 0 21.45-6.69 11.34 11.34 0 0 0-2.23-6.79zm45.43-2.23l-3.2-2.86c4.67-.74 7.74-3.82 7.74-8.39 0-7.74-6.15-12.31-19.1-12.31-12.74 0-20.17 6.37-20.17 16.56 0 5.2 2.65 8.7 6.58 12.31l3.08 2.87H501c-5.83 0-9.87 3.39-9.87 8.7 0 7.64 6.37 12.31 20.06 12.31 13.48 0 21.44-6.47 21.44-16.87.04-5.2-2.5-8.81-6.43-12.32zm-149.42-23.56a12.52 12.52 0 0 0-12.52 12.42v27.07a12.53 12.53 0 0 0 25 0v-27.07a12.46 12.46 0 0 0-12.48-12.42zm-23.7 25.79l5.52-7.64a11.25 11.25 0 0 0 2.13-6.79 11.4 11.4 0 0 0-11.54-11.25 12 12 0 0 0-9.56 4.88l-2.76 3.82a11.13 11.13 0 0 0-11.14-8.81 11.53 11.53 0 0 0-11.57 11.49v28.85A11.53 11.53 0 0 0 325.62 152h.08a10.92 10.92 0 0 0 11-8.38l2.44 3.4a11.74 11.74 0 0 0 9.66 5 11.73 11.73 0 0 0 9.87-18.46zm354.33-24.94h-23.59a11.15 11.15 0 0 0-.64 22.29V141a12 12 0 0 0 12.21 11.68c7.11.1 12.52-5.2 12.52-11.57v-17.9a11.15 11.15 0 0 0-.5-22.29zM762.47 111a9.87 9.87 0 0 0-9.77-10h-18.15c-8.27 0-12.73 4.45-12.73 12.84v26c0 8.5 4.46 12.85 12.73 12.85h18.05a9.66 9.66 0 0 0 9.87-9.44v-.43a9.38 9.38 0 0 0-7.54-9.56 7.95 7.95 0 0 0 0-12.73 9.27 9.27 0 0 0 7.54-9.53zm46.7 24.42l-4.56-7.22a13.9 13.9 0 0 0 5.3-11.36c0-8.91-7.11-15.81-16.23-15.81H778.6c-8.17-.11-12.63 4.35-12.63 12.84V141a11.81 11.81 0 0 0 11.57 11.89 11.16 11.16 0 0 0 10.83-7.75l1.17 2.12a11.73 11.73 0 0 0 10 5.63 11.24 11.24 0 0 0 11.36-11.11v-.25a11.68 11.68 0 0 0-1.73-6.11zm-197.63-25.9c-2.66-6-6.48-9.45-13.16-9.45s-10.51 3.4-13.17 9.45l-10.61 24.73c-4 9.34 2.55 17.72 11.57 17.72 5 0 9.13-3 12.1-9 3 6.05 7.11 9 12.21 9 9.23 0 15.7-8.27 11.67-17.72zm53.92 18.68a13.9 13.9 0 0 0 5.3-11.36c0-8.91-7.11-15.81-16.24-15.81h-15.07c-8.06-.11-12.63 4.35-12.63 12.84V141a11.81 11.81 0 0 0 11.57 11.89 11.17 11.17 0 0 0 10.83-7.75l1.16 2.12a11.74 11.74 0 0 0 10 5.63 11.24 11.24 0 0 0 11.36-11.11v-.25a11.68 11.68 0 0 0-1.7-6.15zm-87-16.13a11.08 11.08 0 0 0-11-11.15h-23.64a11.15 11.15 0 0 0-.64 22.29V141a12 12 0 0 0 12.21 11.68c7.11.1 12.52-5.2 12.52-11.57v-17.9a11 11 0 0 0 10.51-11.14z" fill="#0f4651"/><rect x="900" y="114" width="135" height="27" rx="6" ry="6" fill="#8898aa" opacity=".7"/><path fill="none" stroke="#8898aa" stroke-linecap="round" stroke-linejoin="round" stroke-width="12" opacity=".7" d="M1067.51 152.4l24.93-24.93-24.93-24.92"/><path fill="#525f7f" opacity=".25" d="M0 0h1125v2001H0z" style="isolation:isolate"/><path fill="#525f7f" opacity=".1" d="M0 1011h1125v976.5H0z"/><path fill="#fff" d="M0 1017h1125v984H0z"/><path d="M403.84 1905.58c6.05 0 10.21 4.18 10.21 10.32s-4.29 10.2-10.36 10.2h-7.16v10.42h-4.8v-30.94zm-7.31 16.3h6.05c4.13 0 6.56-2.15 6.56-6s-2.34-6.07-6.56-6.07h-6.05zm20.97 8.04c0-4.21 3.13-6.63 8.68-7l6.33-.37v-2c0-2.47-1.63-3.86-4.78-3.86-2.57 0-4.35.94-4.87 2.59h-4.46c.47-4 4.25-6.58 9.54-6.58 5.85 0 9.16 2.92 9.16 7.85v16h-4.44v-3.28h-.37a7.84 7.84 0 0 1-7 3.67c-4.51-.03-7.79-2.76-7.79-7.02zm15-2v-2l-5.7.37c-3.22.21-4.68 1.3-4.68 3.36s1.82 3.33 4.33 3.33c3.49.02 6.06-2.16 6.06-5.06zm10.79 16.96v-4a10.39 10.39 0 0 0 1.51.09c2.18 0 3.43-.9 4.22-3.26l.34-1.13-8.44-23.44h5l5.85 18.55h.37l5.83-18.55h4.89l-8.71 24.31c-2 5.69-4.2 7.51-9 7.51a18.21 18.21 0 0 1-1.86-.08zm60.29-8.36h-4.78l-4.8-17.19h-.36l-4.81 17.19h-4.73l-6.44-23.35h4.68l4.16 17.83h.34l4.8-17.82h4.42l4.8 17.82h.37l4.16-17.82H510zm10.58-30.25a3 3 0 1 1 3 2.81 2.83 2.83 0 0 1-3-2.81zm.68 6.9h4.59v23.35h-4.59zm17.61-5.81v5.92h5.06v3.88h-5.06v12c0 2.44 1 3.51 3.3 3.51a16.37 16.37 0 0 0 1.76-.1v3.83a14.75 14.75 0 0 1-2.51.24c-5.13 0-7.16-1.8-7.16-6.3v-13.19h-3.71v-3.88h3.71v-5.92zm10.7-3.3h4.56v12.86h.37c1.13-2.61 3.6-4.18 7.11-4.18 5 0 8 3.16 8 8.71v15.07h-4.61v-13.94c0-3.73-1.73-5.61-5-5.61-3.77 0-5.87 2.38-5.87 5.91v13.64h-4.61zm39.1 32.46v-30.94h19.32v4.42h-14.51v9.49h13.29v4.25h-13.29v12.82zm22.33-6.6c0-4.21 3.13-6.63 8.68-7l6.32-.37v-2c0-2.47-1.63-3.86-4.78-3.86-2.57 0-4.35.94-4.87 2.59h-4.45c.47-4 4.24-6.58 9.54-6.58 5.85 0 9.15 2.92 9.15 7.85v16h-4.44v-3.28h-.36a7.87 7.87 0 0 1-7 3.67c-4.52-.03-7.79-2.76-7.79-7.02zm15-2v-2l-5.7.37c-3.22.21-4.67 1.3-4.67 3.36s1.82 3.33 4.33 3.33c3.46.02 6.04-2.16 6.04-5.06zm26.42-7.12c-.54-2.27-2.42-4-5.51-4-3.86 0-6.22 3-6.22 7.93s2.38 8.08 6.22 8.08c2.91 0 4.91-1.33 5.51-3.83h4.48c-.6 4.69-4.2 8-10 8-6.8 0-10.95-4.59-10.95-12.2s4.13-12 10.93-12c5.85 0 9.39 3.41 10 8.08zm29.5 9.42c-1 4.18-4.78 6.75-10.12 6.75-6.69 0-10.78-4.59-10.78-12s4.18-12.2 10.76-12.2 10.42 4.44 10.42 11.77v1.61h-16.49v.26c.15 4.09 2.53 6.69 6.22 6.69 2.79 0 4.69-1 5.55-2.83zm-16.21-7.53h11.79c-.1-3.66-2.33-6-5.74-6s-5.79 2.36-6.05 6zm34.57 13.83v-30.94h4.8v30.94zm23.71-30.94c9.17 0 14.55 5.64 14.55 15.38s-5.33 15.56-14.55 15.56H706.4v-30.94zm-6.37 26.57h5.8c6.48 0 10.21-4 10.21-11.13S723.44 1910 717 1910h-5.8z" fill="#32325d"/><path fill="#f2f5f7" d="M45 1653h1080v6H45z"/><rect x="333" y="1569" width="291" height="30" rx="6" ry="6" fill="#cfd7df"/><rect x="333" y="1513.5" width="354" height="30" rx="6" ry="6" fill="#cfd7df"/><rect x="900" y="1569" width="180" height="30" rx="6" ry="6" fill="#cfd7df"/><rect x="333" y="1449" width="229.5" height="30" rx="6" ry="6" fill="#e6ebf1"/><rect x="333" y="1393.5" width="400.5" height="30" rx="6" ry="6" fill="#e6ebf1"/><path d="M1075.75 1449h-119c-2.35 0-4.25 2.69-4.25 6v18c0 3.31 1.9 6 4.25 6h119c2.35 0 4.25-2.69 4.25-6v-18c0-3.31-1.9-6-4.25-6z" fill="#e6ebf1"/><path fill="#f2f5f7" d="M45 1330.5h1080v6H45z"/><path fill="none" stroke="#6772e5" stroke-linecap="round" stroke-linejoin="round" stroke-width="7.5" d="M1054.26 1261.91l18.43-18.44-18.43-18.43"/><rect x="333" y="1255.5" width="184.5" height="30" rx="6" ry="6" fill="#e6ebf1"/><rect x="333" y="1200" width="456" height="30" rx="6" ry="6" fill="#e6ebf1"/><path d="M152.3 1200H48.7c-2 0-3.7 2.69-3.7 6v18c0 3.31 1.66 6 3.7 6h103.6c2 0 3.7-2.69 3.7-6v-18c0-3.31-1.66-6-3.7-6z" fill="#e6ebf1"/><path fill="#f2f5f7" d="M0 1149h1125v6H0z"/><rect x="915" y="1071" width="165" height="30" rx="6" ry="6" fill="#6772e5"/><path d="M77.43 1081.55c-.05-5.54 4.67-8.2 4.89-8.33a10.66 10.66 0 0 0-8.27-4.34c-3.52-.35-6.87 2-8.65 2s-4.54-2-7.46-1.9a11.1 11.1 0 0 0-9.35 5.49c-4 6.7-1 16.62 2.86 22 1.9 2.66 4.17 5.65 7.14 5.55s3.95-1.8 7.41-1.8 4.43 1.8 7.45 1.74 5-2.71 6.92-5.38a23.65 23.65 0 0 0 3.13-6.22 9.75 9.75 0 0 1-6.07-8.81zm-5.68-16.27a9.49 9.49 0 0 0 2.35-7 10.24 10.24 0 0 0-6.66 3.32 9 9 0 0 0-2.4 6.77 8.5 8.5 0 0 0 6.71-3.09zM108.74 1062c7.64 0 13 5.26 13 12.93s-5.46 13-13.18 13h-9.12v13.45h-6.11V1062zm-9.3 20.79h7.69c5.29 0 8.35-2.87 8.35-7.83s-3-7.81-8.35-7.81h-7.69zm23.46 10.05c0-5.18 4-8.18 11.32-8.65l8-.46v-2.29c0-3.39-2.27-5.24-6.23-5.24-3.21 0-5.56 1.66-6.08 4.23h-5.54c.17-5.24 5.13-9.11 11.79-9.11 7.23 0 11.89 3.81 11.89 9.68v20.33h-5.64v-4.94h-.14a10.37 10.37 0 0 1-9.36 5.24c-5.91 0-10.01-3.5-10.01-8.79zm19.32-2.64v-2.32l-7.21.49c-4 .24-6.14 1.74-6.14 4.36s2.21 4.18 5.62 4.18c4.4 0 7.73-2.81 7.73-6.71zm12.35 21.74v-4.8a10.4 10.4 0 0 0 1.89.13c2.81 0 4.36-1.2 5.37-4.33l.46-1.53-10.75-29.71h6.36l7.61 24.22h.14l7.61-24.22h6.22l-11.1 31c-2.54 7.12-5.35 9.41-11.41 9.41a23.78 23.78 0 0 1-2.4-.17z" fill="#32325d"/><path d="M504 1815.17v16.08a14.29 14.29 0 0 0 14.25 14.25h15.92m89.5-89.67v-16.08a14.3 14.3 0 0 0-14.25-14.25H593.5m-59.33 0h-15.92a14.29 14.29 0 0 0-14.25 14.25v16.08m89.5 89.67h15.92a14.3 14.3 0 0 0 14.25-14.25v-16.08" fill="none" stroke="#007aff" stroke-linecap="round" stroke-linejoin="round" stroke-width="6"/><path fill="none" stroke="#007aff" stroke-linecap="round" stroke-linejoin="round" stroke-width="8" d="M537.5 1770v10m52.13-10v10"/><path d="M565.67 1768.83v23.09a6.25 6.25 0 0 1-6.25 6.25h-2.09m-13.12 14.5a29.66 29.66 0 0 0 38.58 0" fill="none" stroke="#007aff" stroke-linecap="round" stroke-linejoin="round" stroke-width="6"/><path opacity=".15" fill="url(#a)" d="M0 0h1125v2001H0z"/></svg>