<svg xmlns="http://www.w3.org/2000/svg" width="90" height="50" viewBox="0 0 90 50"><path d="M22.77 21H17.3a3.52 3.52 0 0 0-.3-1.77c-.32-.45-1.22-.68-2.69-.68a6.5 6.5 0 0 0-2.84.4q-.69.39-.69 1.71a1.71 1.71 0 0 0 .61 1.57 2.54 2.54 0 0 0 1.17.31l1.1.08q3.56.24 4.44.33a6.72 6.72 0 0 1 4.06 1.5 3.91 3.91 0 0 1 1.19 2.46 18.17 18.17 0 0 1 .09 2.09 10.81 10.81 0 0 1-.51 3.87c-.61 1.49-2 2.44-4.11 2.84a23.91 23.91 0 0 1-4.09.25 25.08 25.08 0 0 1-6.41-.55 4.2 4.2 0 0 1-2.93-2.73A13.06 13.06 0 0 1 5 28.84h5.47v.45a1.88 1.88 0 0 0 .82 1.84 3.3 3.3 0 0 0 1.37.29h2a7.08 7.08 0 0 0 2-.16 1.59 1.59 0 0 0 1-1 3.84 3.84 0 0 0 .12-1c0-1-.35-1.55-1.05-1.76a31.05 31.05 0 0 0-3.73-.35c-1.75-.12-3-.24-3.65-.36a4.84 4.84 0 0 1-3.58-2.07 8.22 8.22 0 0 1-.78-4 10.48 10.48 0 0 1 .42-3.29 3.6 3.6 0 0 1 1.41-1.93 7 7 0 0 1 3.54-1.16c1.2-.1 2.52-.16 4-.16a21.24 21.24 0 0 1 4.91.4q3.59 1 3.58 5.38-.02.36-.08 1.04zm24.07 14.93V14.07h11a12.09 12.09 0 0 1 3.44.37 5.33 5.33 0 0 1 3.63 3.47 13.36 13.36 0 0 1 .48 4.14 15.41 15.41 0 0 1-.53 4.78 4.91 4.91 0 0 1-4.34 3.31c-.25 0-1.35.08-3.28.11h-4.51v5.64zm5.89-10.71h3.67a6.65 6.65 0 0 0 2.12-.28 1.57 1.57 0 0 0 .7-1.14 10.21 10.21 0 0 0 .11-1.71 7 7 0 0 0-.22-2.09 1.75 1.75 0 0 0-1.52-1.14 8.77 8.77 0 0 0-1.14 0h-3.72zm25.19 6.93h-7.87L69 35.93h-6.09l6.57-21.86h8.87L85 35.93h-6zm-1.17-4.26L74 18.42l-2.67 9.47z" fill="#231f20"></path><path d="M38.72 17.24a7.64 7.64 0 0 1 6 2.83l.09.12.07-.14 1.26-2.72v-.06a11.3 11.3 0 0 0-14-1.15A10.94 10.94 0 0 0 28 21l.09-.06h-2.51V21l-1.48 3.12-.06.13h3.33l-.1-.1v.89a9.73 9.73 0 0 0 .06 1.07l.09-.1h-1.7l-1.46 3.13-.07.13h4l-.08-.05a11.09 11.09 0 0 0 10.24 6.68A11.25 11.25 0 0 0 44.6 34v-4.15l-.16.19a7.66 7.66 0 0 1-12.17-.86l-.07.14h8.2v-.05l1.46-3.13L42 26H31l.1.08a7.4 7.4 0 0 1-.05-1.08v-.78l-.09.08h11.81v-.05l1.46-3.13.06-.14H32l.08.14a7.7 7.7 0 0 1 6.64-3.88z" fill="#231f20" opacity=".5"></path></svg>