<svg xmlns="http://www.w3.org/2000/svg" width="20" height="20" viewBox="0 0 20 20"><rect x="10.78" y="0.54" width="2.55" height="9.12" rx="1.28" ry="1.28" transform="translate(7.13 -7.03) rotate(45)"></rect><path d="M19,9.06l.13-.49A1.25,1.25,0,0,0,18,7H2.05A1.25,1.25,0,0,0,.83,8.57L1,9.06A1.25,1.25,0,0,0,2.17,10H17.83A1.25,1.25,0,0,0,19,9.06Z"></path><path d="M1.87,13.07l1.18,4.49a1.25,1.25,0,0,0,1.21.94H15.74A1.25,1.25,0,0,0,17,17.56l1.18-4.49a1.26,1.26,0,0,0-1.22-1.57H3.09A1.26,1.26,0,0,0,1.87,13.07Z"></path></svg>