<svg xmlns="http://www.w3.org/2000/svg" width="246" height="120" viewBox="0 0 246 120"><path d="M84.9 60.85c-2.1-1.16-3.2-2.1-3.2-3.42 0-1.71 1.49-2.76 3.86-2.76a13.55 13.55 0 0 1 5.19 1.16l1.93-5.9s-1.77-1.38-7-1.38c-7.28 0-12.35 4.19-12.35 10 0 3.31 2.37 5.85 5.51 7.67 2.54 1.44 3.42 2.48 3.42 4s-1.26 2.87-3.65 2.87a16.21 16.21 0 0 1-6.84-1.82l-2 5.9a15.93 15.93 0 0 0 8.22 2c7.5 0 12.85-3.69 12.85-10.31.07-3.6-2.69-6.14-5.94-8.01zm108.71-24.44a4.78 4.78 0 0 0-4.8 4.86c0 2.48 1.54 4.19 3.91 4.19h.11a4.73 4.73 0 0 0 4.91-4.85 3.92 3.92 0 0 0-4.13-4.2zm-20.52 12.03c-5.63 0-8.83 5-8.83 5h-.11l.5-4.47h-7.39c-.39 3-1 7.61-1.71 11.09l-5.79 30.55h8.33l2.31-12.35h.17a9.65 9.65 0 0 0 4.91 1.1c9.81 0 16.21-10 16.21-20.18 0-5.72-2.48-10.74-8.6-10.74zM165.15 73a5.23 5.23 0 0 1-3.42-1.21l1.38-7.79c1-5.18 3.69-8.66 6.56-8.66 2.54 0 3.31 2.37 3.31 4.58.02 5.34-3.2 13.08-7.83 13.08zm-50.36-24.56a11.33 11.33 0 0 0-8.79 4.41l-.11-.06L109.06 36h-8.33l-8.11 42.66H101l2.76-14.56c1.1-5.52 3.91-8.88 6.56-8.88 1.88 0 2.59 1.27 2.59 3.09a17.06 17.06 0 0 1-.38 3.69l-3.15 16.72h8.33l3.25-17.21a28.66 28.66 0 0 0 .61-5.46c.01-4.8-2.48-7.61-6.78-7.61zm25.65 0c-10 0-16.71 9-16.71 19.13 0 6.46 4 11.7 11.47 11.7 9.87 0 16.49-8.83 16.49-19.14.05-6.01-3.42-11.69-11.25-11.69zm-4.08 24.37c-2.87 0-4-2.42-4-5.46 0-4.79 2.48-12.57 7-12.57 3 0 3.91 2.54 3.91 5-.02 5.22-2.5 13.03-6.91 13.03zm45.55 5.85h8.39l5.68-29.56h-8.44l-5.63 29.56zM217.16 49h-5.8l.28-1.38c.5-2.87 2.15-5.41 5-5.41a8.1 8.1 0 0 1 2.65.45l1.66-6.51a11 11 0 0 0-4.53-.72 12.4 12.4 0 0 0-8.16 2.76c-2.87 2.43-4.19 5.9-4.85 9.43l-.26 1.38h-3.86l-1.22 6.29h3.86l-4.41 23.33h8.33l4.41-23.33H216zm20.07.1s-5.23 13.13-7.56 20.29h-.11c-.16-2.31-2-20.29-2-20.29h-8.77l5 27.13a1.86 1.86 0 0 1-.16 1.38 14.37 14.37 0 0 1-4.52 5A17.68 17.68 0 0 1 214.4 85l2.31 7.06a19.44 19.44 0 0 0 8.17-4.52c3.8-3.58 7.33-9.05 10.92-16.55L246 49.1zM52 34.59c-.28 0-5.52-.38-5.52-.38s-3.64-3.64-4.08-4a1.26 1.26 0 0 0-.3-.21l-2.59 60.3 20.63-4.47-7.5-50.68a.65.65 0 0 0-.64-.56zm-11-4.68c-.06 0-.83.22-2 .6-1.22-3.53-3.37-6.78-7.17-6.78h-.33a4.74 4.74 0 0 0-3.59-2c-8.88 0-13.12 11.09-14.45 16.71-3.42 1-5.9 1.82-6.17 1.93-1.93.61-2 .67-2.21 2.49C4.82 44.19-.2 83.07-.2 83.07l38.77 7.28 2.65-60.5c-.06 0-.17.06-.22.06zm-9.87 2.64v.39L24.29 35c1.32-5.07 3.8-7.55 5.95-8.49a16.69 16.69 0 0 1 .89 6.04zm-3.53-8.44a2 2 0 0 1 1.15.39c-2.81 1.32-5.9 4.69-7.16 11.42-1.88.6-3.7 1.16-5.41 1.65 1.49-5.13 5.07-13.46 11.42-13.46zm1.54 30a12.25 12.25 0 0 0-5.07-1.21c-4.14 0-4.3 2.59-4.3 3.25C19.77 59.63 29 61 29 69.34c0 6.56-4.14 10.75-9.76 10.75A13.51 13.51 0 0 1 9.12 75.9l1.82-6s3.53 3 6.51 3a2.66 2.66 0 0 0 2.76-2.65c0-4.63-7.61-4.85-7.61-12.46 0-6.4 4.57-12.63 13.89-12.63a11.17 11.17 0 0 1 5.35 1zm4.3-21.84v-.71a16.24 16.24 0 0 0-.77-5.35c2 .22 3.25 2.48 4.08 5-.99.3-2.09.63-3.31 1.01z" fill="#6b7c93"/></svg>