<svg xmlns="http://www.w3.org/2000/svg" width="72" height="72" viewBox="0 0 72 72"><path fill="#3297d3" d="M0 0h72v72H0z"/><path d="M17.51 26.06l-1 4.48H14.7l3.52-14.69h2.35l3.61 14.69h-1.91l-1-4.48zm3.38-1.59c-.79-3.46-1.32-5.71-1.52-6.93h-.06c-.19 1.3-.77 3.86-1.45 6.93zm6.65-8.62v14.69h-1.81V15.85zm10.69 10.58c-.07.84-.42 4.34-4.08 4.34-4 0-4.29-4.05-4.29-7.66 0-4.37 1.17-7.48 4.46-7.48 3.61 0 3.83 3.33 3.87 4.28h-1.81c0-.5-.11-2.69-2.09-2.69-2.19 0-2.55 3-2.55 5.9s.33 6.08 2.45 6.08c1.89 0 2.15-2.06 2.22-2.77zm1.93-10.58h3.91c2.32 0 4 1.45 4 4.14s-1.47 4.27-4.19 4.27H42v6.28h-1.8zM42 22.76h1.68c1.71 0 2.56-.9 2.56-2.79 0-1.59-.83-2.61-2.38-2.61H42zm8.63 3.3l-1 4.48h-1.81l3.52-14.69h2.35l3.61 14.69h-1.91l-1-4.48zM54 24.47c-.8-3.46-1.33-5.71-1.53-6.93h-.06c-.19 1.3-.77 3.86-1.45 6.93zM23.33 52.62c.12 1.45.8 2.63 2.36 2.63s2.22-.83 2.22-2.41-.62-2.28-2.6-3.23C23 48.49 22 47.46 22 45.32a3.5 3.5 0 0 1 3.78-3.69c2.93 0 3.7 2.07 3.75 3.83h-1.82c-.07-.74-.29-2.35-2-2.35a1.83 1.83 0 0 0-1.92 2.06c0 1.34.6 2 2.42 2.83 2.58 1.23 3.57 2.44 3.57 4.68a3.77 3.77 0 0 1-4.12 4.06c-3 0-4-2-4.12-4.12zm16.82-3.57c0 5.08-1.25 7.7-4.47 7.7-3 0-4.36-2.54-4.36-7.68s1.53-7.45 4.44-7.45c3.08 0 4.39 2.43 4.39 7.43zm-7 0c0 4.06.79 6.17 2.56 6.17s2.55-2 2.55-6.14-.78-5.88-2.57-5.88-2.51 1.97-2.51 5.8zm17.27 3.37c-.06.83-.42 4.33-4.08 4.33-4 0-4.29-4-4.29-7.66 0-4.37 1.18-7.47 4.47-7.47 3.6 0 3.82 3.32 3.86 4.27h-1.81c0-.5-.11-2.69-2.08-2.69-2.2 0-2.56 2.95-2.56 5.91s.33 6.07 2.45 6.07c1.89 0 2.16-2 2.22-2.76z" fill="#fff"/><path fill="none" stroke="#fff" stroke-linejoin="round" stroke-width="1.5" d="M14.47 36h43.06"/></svg>