<svg xmlns="http://www.w3.org/2000/svg" viewBox="0 0 3072 2304"><defs><linearGradient id="a" x1="-1.14" y1="-2.48" x2="3070.14" y2="2306.48" gradientUnits="userSpaceOnUse"><stop offset="0" stop-color="#fff"/><stop offset=".48" stop-color="#fff" stop-opacity="0"/><stop offset=".52" stop-color="#6b7c93" stop-opacity="0"/><stop offset="1" stop-color="#6b7c93"/></linearGradient></defs><path fill="#fff" d="M0 0h3072v2304H0z"/><path d="M2659.5 632h-2247a15 15 0 0 0-15 15v1657h2277V647a15 15 0 0 0-15-15z" fill="none" stroke="#e6ebf1" stroke-linecap="round" stroke-linejoin="round" stroke-width="4.5"/><rect x="729" y="868.5" width="1614" height="27" rx="6" ry="6" fill="#e6ebf1" opacity=".5"/><rect x="909" y="929" width="1254" height="27" rx="6" ry="6" fill="#e6ebf1" opacity=".5"/><path d="M1338 807.53v-60h26.73c10.44 0 16.83 6.3 16.83 15.3 0 7.56-5 12.6-10.53 13.77 6.39 1 11.7 7.56 11.7 14.76 0 9.63-6.39 16.2-17.37 16.2zm35.82-43.65c0-5.4-3.6-9.72-10.35-9.72h-18v19.35h18c6.71 0 10.31-4.14 10.31-9.63zm1.17 26.64c0-5.49-3.78-10.35-11.16-10.35h-18.36v20.7h18.36c6.98 0 11.17-3.96 11.17-10.35zm18.14-37.17a4.55 4.55 0 1 1 9.09 0 4.55 4.55 0 0 1-9.09 0zm1.17 54.18v-43.47h6.75v43.47zm20.25 0v-60h6.75v60zm20.25 0v-60h6.75v60zm19.08-54.18a4.55 4.55 0 1 1 9.09 0 4.55 4.55 0 0 1-9.09 0zm1.17 54.18v-43.47h6.75v43.47zm49.58 0v-28.44c0-7.65-3.87-10.08-9.72-10.08a16.78 16.78 0 0 0-12.87 6.75v31.77h-6.75v-43.47h6.71v6.3c3.06-3.6 9-7.38 15.48-7.38 9.09 0 13.86 4.59 13.86 14v30.51zm20.16 11.16l3.42-5c3.6 4.32 7.92 5.94 14.13 5.94 7.2 0 14-3.51 14-13.05v-6.21a18.16 18.16 0 0 1-14.58 7.74c-11.34 0-19.35-8.46-19.35-22.5s7.92-22.59 19.35-22.59a18 18 0 0 1 14.58 7.65v-6.57h6.66v42.21c0 14.4-10.08 18.9-20.7 18.9-7.3-.04-12.38-1.48-17.51-6.52zm31.5-23.67V776a16 16 0 0 0-13-7c-8.73 0-13.95 6.93-13.95 16.56s5.22 16.56 13.95 16.56a16.09 16.09 0 0 0 13-7.12zm43.71 12.51v-60h7.47v60zm50.61 0v-28.44c0-7.65-3.87-10.08-9.72-10.08a16.78 16.78 0 0 0-12.87 6.75v31.77h-6.75v-43.47h6.73v6.3c3.06-3.6 9-7.38 15.48-7.38 9.09 0 13.86 4.59 13.86 14v30.51zm22.14 0V770h-7.2v-5.94h7.2v-3.33c0-8.91 4.86-14.13 12.6-14.13a12.65 12.65 0 0 1 9.18 3.33l-2.79 4.41a7.93 7.93 0 0 0-5.4-2.16c-4.41 0-6.84 3.06-6.84 8.55v3.33h8.82V770h-8.82v37.53zm21.06-21.78c0-12.6 8.28-22.77 21.51-22.77s21.51 10.17 21.51 22.77-8.28 22.86-21.51 22.86-21.51-10.26-21.51-22.86zm35.91 0c0-8.82-5.13-16.74-14.4-16.74s-14.49 7.92-14.49 16.74 5.22 16.83 14.49 16.83 14.4-7.92 14.4-16.83z" fill="#525f7f"/><rect x="562.5" y="2075.5" width="613.36" height="146.63" rx="15" ry="15" fill="none" stroke="#cfd7df" stroke-linecap="round" stroke-linejoin="round" stroke-width="4.5"/><rect x="592.5" y="2102.5" width="125.86" height="15" rx="6" ry="6" fill="#e6ebf1"/><path d="M594.78 2183.36l2.94-3.78a16.92 16.92 0 0 0 12.6 5.7c7.14 0 9.42-3.84 9.42-6.9 0-10.32-23.7-4.62-23.7-18.9 0-6.6 5.88-11.1 13.74-11.1 6.12 0 10.86 2 14.22 5.58l-3 3.66a15.31 15.31 0 0 0-11.58-4.8c-4.8 0-8.22 2.58-8.22 6.36 0 9 23.7 3.84 23.7 18.78 0 5.82-4 11.76-14.76 11.76-6.96 0-12.06-2.64-15.36-6.36zm55.5 5.64v-3.3a12.54 12.54 0 0 1-9.6 4c-4.92 0-10.14-3.3-10.14-9.6 0-6.48 5.22-9.54 10.14-9.54 4 0 7.26 1.26 9.6 4v-5.22c0-3.9-3.12-6.12-7.32-6.12a11.51 11.51 0 0 0-8.88 4l-2.1-3.12a15.17 15.17 0 0 1 11.58-4.8c6.12 0 11.22 2.76 11.22 9.78V2189zm0-6.12v-5.46a9.7 9.7 0 0 0-8-3.6c-4.2 0-7.14 2.64-7.14 6.36s2.94 6.3 7.14 6.3a9.7 9.7 0 0 0 8-3.6zm33.06 6.12v-19c0-5.1-2.58-6.72-6.48-6.72a11.19 11.19 0 0 0-8.58 4.5V2189h-4.5v-29h4.5v4.2a14.37 14.37 0 0 1 10.32-4.92c6.06 0 9.24 3.06 9.24 9.36V2189zm29.16 0v-40h26.22v4.44h-21.24v12.9h20.82v4.44h-20.82V2189zm32.82 0v-29h4.5v4.68c2.34-3.06 5.7-5.28 9.66-5.28v4.6a7.93 7.93 0 0 0-1.8-.18 10.6 10.6 0 0 0-7.86 4.62V2189zm37.92 0v-3.3a12.54 12.54 0 0 1-9.6 4c-4.92 0-10.14-3.3-10.14-9.6 0-6.48 5.22-9.54 10.14-9.54 4 0 7.26 1.26 9.6 4v-5.22c0-3.9-3.12-6.12-7.32-6.12a11.51 11.51 0 0 0-8.88 4l-2.1-3.12a15.17 15.17 0 0 1 11.58-4.8c6.12 0 11.22 2.76 11.22 9.78V2189zm0-6.12v-5.46a9.7 9.7 0 0 0-8-3.6c-4.2 0-7.14 2.64-7.14 6.36s2.94 6.3 7.14 6.3a9.7 9.7 0 0 0 8-3.6zm33.06 6.12v-19c0-5.1-2.58-6.72-6.48-6.72a11.19 11.19 0 0 0-8.58 4.5V2189h-4.5v-29h4.5v4.2a14.37 14.37 0 0 1 10.32-4.92c6.06 0 9.24 3.06 9.24 9.36V2189zm11.82-14.52c0-8.58 5.82-15.18 14.46-15.18a12.4 12.4 0 0 1 10.62 5l-3 2.76a8.59 8.59 0 0 0-7.38-3.78c-6.18 0-10 4.74-10 11.16s3.84 11.22 10 11.22a8.74 8.74 0 0 0 7.38-3.78l3 2.76a12.4 12.4 0 0 1-10.62 5c-8.64.08-14.46-6.52-14.46-15.16zm30.6-21.6a3 3 0 1 1 6.06 0 3 3 0 0 1-6.06 0zm.78 36.12v-29h4.5v29zm10.98-3.84l2.34-3.24a13.12 13.12 0 0 0 9.53 4.14c4.44 0 6.84-2.1 6.84-5 0-7-17.93-2.7-17.93-13.44 0-4.5 3.9-8.34 10.8-8.34a14.66 14.66 0 0 1 10.73 4.2l-2.1 3.12a11.28 11.28 0 0 0-8.63-3.66c-4 0-6.42 2-6.42 4.56 0 6.36 17.93 2.16 17.93 13.44 0 4.86-3.9 8.76-11.4 8.76-4.73.02-8.75-1.42-11.69-4.54zm28.74-10.68c0-8.58 5.82-15.18 14.45-15.18a12.4 12.4 0 0 1 10.62 5l-3 2.76a8.59 8.59 0 0 0-7.37-3.78c-6.19 0-10 4.74-10 11.16s3.83 11.22 10 11.22a8.73 8.73 0 0 0 7.37-3.78l3 2.76a12.4 12.4 0 0 1-10.62 5c-8.67.08-14.45-6.52-14.45-15.16zm29.7 0c0-8.4 5.52-15.18 14.33-15.18s14.34 6.78 14.34 15.18-5.52 15.24-14.34 15.24-14.33-6.84-14.33-15.24zm23.93 0c0-5.88-3.42-11.16-9.6-11.16s-9.66 5.28-9.66 11.16 3.48 11.22 9.66 11.22 9.6-5.28 9.6-11.22z" fill="#32325d"/><rect x="1230.33" y="2075.5" width="614.2" height="146.63" rx="15" ry="15" fill="none" stroke="#cfd7df" stroke-linecap="round" stroke-linejoin="round" stroke-width="4.5"/><rect x="1260.28" y="2102.5" width="248.25" height="15" rx="6" ry="6" fill="#e6ebf1"/><path d="M1259.56 2169c0-12.3 9.06-20.7 20.58-20.7a17.9 17.9 0 0 1 15.18 7.92l-4.2 2.34a13.5 13.5 0 0 0-11-5.82c-8.76 0-15.42 6.72-15.42 16.26s6.66 16.26 15.42 16.26a13.35 13.35 0 0 0 11-5.82l4.26 2.34c-3.36 4.56-8.16 7.92-15.24 7.92-11.52.02-20.58-8.38-20.58-20.7zm60.12 20v-3.3a12.54 12.54 0 0 1-9.6 4c-4.92 0-10.14-3.3-10.14-9.6 0-6.48 5.22-9.54 10.14-9.54 4 0 7.26 1.26 9.6 4v-5.22c0-3.9-3.12-6.12-7.32-6.12a11.51 11.51 0 0 0-8.88 4l-2.1-3.12a15.17 15.17 0 0 1 11.58-4.8c6.12 0 11.22 2.76 11.22 9.78V2189zm0-6.12v-5.46a9.7 9.7 0 0 0-8-3.6c-4.2 0-7.14 2.64-7.14 6.36s2.94 6.3 7.14 6.3a9.7 9.7 0 0 0 8-3.6zm13.5 6.12v-40h4.5v40zm12.72-36.12a3 3 0 1 1 6.06 0 3 3 0 0 1-6.06 0zm.78 36.12v-29h4.5v29zm14.76 0v-25h-4.8v-4h4.8v-2.22c0-5.94 3.24-9.42 8.4-9.42a8.43 8.43 0 0 1 6.12 2.22l-1.86 2.94a5.29 5.29 0 0 0-3.6-1.44c-2.94 0-4.56 2-4.56 5.7v2.22h5.88v4h-5.88v25zm14.04-14.52c0-8.4 5.52-15.18 14.34-15.18s14.34 6.78 14.34 15.18-5.52 15.24-14.34 15.24-14.34-6.84-14.34-15.24zm23.94 0c0-5.88-3.42-11.16-9.6-11.16s-9.66 5.28-9.66 11.16 3.48 11.22 9.66 11.22 9.6-5.28 9.6-11.22zm12.06 14.52v-29h4.5v4.68c2.34-3.06 5.7-5.28 9.66-5.28v4.6a7.93 7.93 0 0 0-1.8-.18 10.6 10.6 0 0 0-7.86 4.62V2189zm39.36 0v-19c0-5.1-2.58-6.72-6.48-6.72a11.19 11.19 0 0 0-8.58 4.5V2189h-4.5v-29h4.5v4.2a14.37 14.37 0 0 1 10.32-4.92c6.06 0 9.23 3.06 9.23 9.36V2189zm12.72-36.12a3 3 0 1 1 6.06 0 3 3 0 0 1-6.06 0zm.78 36.12v-29h4.5v29zm31.66 0v-3.3a12.54 12.54 0 0 1-9.6 4c-4.91 0-10.13-3.3-10.13-9.6 0-6.48 5.22-9.54 10.13-9.54 4 0 7.26 1.26 9.6 4v-5.22c0-3.9-3.12-6.12-7.32-6.12a11.48 11.48 0 0 0-8.87 4l-2.1-3.12a15.16 15.16 0 0 1 11.57-4.8c6.12 0 11.22 2.76 11.22 9.78V2189zm0-6.12v-5.46a9.7 9.7 0 0 0-8-3.6c-4.2 0-7.14 2.64-7.14 6.36s2.94 6.3 7.14 6.3a9.7 9.7 0 0 0 8-3.6z" fill="#32325d"/><rect x="1898.63" y="2075.5" width="607.83" height="146.63" rx="15" ry="15" fill="none" stroke="#cfd7df" stroke-linecap="round" stroke-linejoin="round" stroke-width="4.5"/><rect x="1927.78" y="2102.5" width="176.25" height="15" rx="6" ry="6" fill="#e6ebf1"/><path d="M1929.54 2184.86l2.52-3.72a10.34 10.34 0 0 0 8.58 4.08c8.1 0 11.28-8.1 11.28-15.66a14.62 14.62 0 0 0-.06-1.62 14.36 14.36 0 0 1-11.28 6.24c-7.2 0-13.14-4.26-13.14-12.78 0-6.9 5.28-13.08 14-13.08 11.22 0 15.48 9.78 15.48 20.7s-5 20.64-16.26 20.64a13.91 13.91 0 0 1-11.12-4.8zm22.14-20.94c-.42-5-3.06-11.16-10-11.16-6.12 0-9.18 4.68-9.18 8.46 0 5.88 4.08 8.64 9.24 8.64a12 12 0 0 0 9.94-5.94zm29.22 25.08v-10.14h-19v-4.14L1979 2149h6.84v25.5h5.64v4.38h-5.64V2189zm0-35.4l-14 20.88h14zm23.22 35.4v-33.42l-6.42 6.78-3-3.06 10-10.32h4.38v40zm12.72-20c0-9.78 4.32-20.64 15.3-20.64s15.3 10.86 15.3 20.64-4.38 20.7-15.3 20.7-15.3-10.96-15.3-20.7zm25.5 0c0-8-2.58-16.2-10.2-16.2s-10.2 8.22-10.2 16.2 2.58 16.26 10.2 16.26 10.2-8.26 10.2-16.26zm15.42 20l16.14-35.58h-21.54V2149h27.3v3.42l-16.38 36.6z" fill="#32325d"/><rect x="562.5" y="1877.5" width="1947" height="146.62" rx="15" ry="15" fill="none" stroke="#cfd7df" stroke-linecap="round" stroke-linejoin="round" stroke-width="4.5"/><rect x="592.5" y="1904.5" width="245.86" height="15" rx="6" ry="6" fill="#e6ebf1"/><path d="M603.18 1987v-33.42l-6.42 6.78-3-3.06 10-10.32h4.38v40zm12.82-10.14c0-5.34 4.56-9 9.54-10.5-4.62-1.32-8.88-4.32-8.88-9.6 0-7.2 7-10.38 13.68-10.38s13.74 3.18 13.74 10.38c0 5.28-4.32 8.28-8.94 9.6 5 1.5 9.54 5.16 9.54 10.5 0 6.78-6.48 10.86-14.34 10.86S616 1983.7 616 1976.86zm23.64-.54c0-5.22-6.84-7.44-9.3-7.74-2.46.3-9.36 2.52-9.36 7.74 0 4.32 4.38 7 9.36 7s9.26-2.68 9.26-7zm-.6-18.9c0-4.14-3.9-6.6-8.7-6.6s-8.7 2.46-8.7 6.6c0 4.86 6.3 6.48 8.7 6.9 2.42-.42 8.66-2.04 8.66-6.9zm12.62 23.88l3.06-3.3a13.17 13.17 0 0 0 11 5.28c5.46 0 9.24-3.72 9.24-8.58 0-5.28-3.78-8.64-9.18-8.64a12.55 12.55 0 0 0-9.24 3.78l-3.66-1.26V1947h24.52v4.44h-19.5v13.92a13.53 13.53 0 0 1 9.36-3.6c6.66 0 12.72 4.56 12.72 12.78s-6.18 13.2-14.22 13.2c-6.76-.02-11.1-2.48-14.1-6.44zm51.6 5.7v-40h17.82c7 0 11.22 4.2 11.22 10.2a9.1 9.1 0 0 1-7 9.18c4.26.66 7.8 5 7.8 9.84 0 6.42-4.26 10.8-11.58 10.8zm23.88-29.1c0-3.6-2.4-6.48-6.9-6.48h-12v12.9h12c4.5 0 6.9-2.76 6.9-6.42zm.78 17.76c0-3.66-2.52-6.9-7.44-6.9h-12.24v13.8h12.24c4.68 0 7.44-2.64 7.44-6.9zm11.22-3.18c0-8.4 6-15.18 14.28-15.18 8.76 0 13.92 6.84 13.92 15.54v1.16h-23.46c.36 5.46 4.2 10 10.44 10a12.67 12.67 0 0 0 8.94-3.66l2.16 2.94a15.74 15.74 0 0 1-11.52 4.44c-8.58 0-14.76-6.18-14.76-15.24zm14.22-11.48c-6.18 0-9.24 5.22-9.48 9.66h19c-.04-4.3-2.88-9.66-9.52-9.66zm21.24 26v-29h4.5v4.68c2.34-3.06 5.7-5.28 9.66-5.28v4.6a7.93 7.93 0 0 0-1.8-.18 10.6 10.6 0 0 0-7.86 4.62V1987zm19.8 0v-29h4.5v4.68c2.34-3.06 5.7-5.28 9.66-5.28v4.6a7.93 7.93 0 0 0-1.8-.18 10.6 10.6 0 0 0-7.86 4.62V1987zm18.9 7.26a6.9 6.9 0 0 0 2.46.48c2 0 3.3-.66 4.32-3.06l1.92-4.38-12.12-29.3h4.86l9.66 23.76L834 1958h4.92l-14.52 34.86c-1.74 4.2-4.68 5.82-8.52 5.88a14.61 14.61 0 0 1-3.3-.42zm43.55-12.9l2.94-3.78a16.93 16.93 0 0 0 12.6 5.7c7.14 0 9.42-3.84 9.42-6.9 0-10.32-23.69-4.62-23.69-18.9 0-6.6 5.87-11.1 13.73-11.1 6.12 0 10.86 2 14.22 5.58l-3 3.66a15.31 15.31 0 0 0-11.58-4.8c-4.8 0-8.22 2.58-8.22 6.36 0 9 23.7 3.84 23.7 18.78 0 5.82-4 11.76-14.76 11.76-6.96 0-12.06-2.64-15.36-6.36zm37.27-.42v-19h-4.8v-4h4.8v-7.92h4.49v7.98h5.88v4h-5.88v18c0 2.16 1 3.72 2.94 3.72a4.34 4.34 0 0 0 3.06-1.2l1.32 3.36a7.36 7.36 0 0 1-5.4 1.86c-4.26-.02-6.41-2.48-6.41-6.8z" fill="#32325d"/><rect x="562.5" y="1678" width="950.86" height="146.63" rx="15" ry="15" fill="none" stroke="#cfd7df" stroke-linecap="round" stroke-linejoin="round" stroke-width="4.5"/><rect x="592.5" y="1705" width="191.86" height="15" rx="6" ry="6" fill="#e6ebf1"/><path d="M593.16 1783.6l2.58-3.78c1.74 2.1 4.08 4 7.56 4 4.92 0 8-3.42 8-8.4v-27.9h5v28c0 8.7-5.58 12.78-12.72 12.78a12.84 12.84 0 0 1-10.42-4.7zm30.66-10.6c0-8.4 6-15.18 14.28-15.18 8.76 0 13.92 6.84 13.92 15.54v1.14h-23.46c.36 5.46 4.2 10 10.44 10a12.67 12.67 0 0 0 8.94-3.66l2.16 2.94a15.74 15.74 0 0 1-11.52 4.44c-8.58 0-14.76-6.22-14.76-15.22zm14.18-11.48c-6.18 0-9.24 5.22-9.48 9.66h19c0-4.32-2.88-9.66-9.52-9.66zm40.84 25.98v-19c0-5.1-2.58-6.72-6.48-6.72a11.19 11.19 0 0 0-8.58 4.5v21.18h-4.5v-29h4.5v4.2a14.37 14.37 0 0 1 10.32-4.92c6.06 0 9.24 3.06 9.24 9.36v20.34zm33.06 0v-19c0-5.1-2.58-6.72-6.48-6.72a11.19 11.19 0 0 0-8.58 4.5v21.18h-4.5v-29h4.5v4.2a14.37 14.37 0 0 1 10.32-4.92c6.06 0 9.24 3.06 9.24 9.36v20.34zm12.6 7.26a6.9 6.9 0 0 0 2.46.48c2 0 3.3-.66 4.32-3.06l1.92-4.38-12.12-29.28h4.86l9.66 23.76 9.6-23.76h4.92l-14.52 34.86c-1.74 4.2-4.68 5.82-8.52 5.88a14.61 14.61 0 0 1-3.3-.42z" fill="#32325d"/><rect x="1566.33" y="1678" width="943.17" height="146.63" rx="15" ry="15" fill="none" stroke="#cfd7df" stroke-linecap="round" stroke-linejoin="round" stroke-width="4.5"/><rect x="1596.28" y="1705" width="197.25" height="15" rx="6" ry="6" fill="#e6ebf1"/><path d="M1625.34 1787.5l-10.2-15.9h-8v15.9h-5v-40h16.08c7.32 0 12.54 4.68 12.54 12.06 0 7.2-4.92 11.16-10.38 11.64l10.8 16.32zm.3-28c0-4.5-3.24-7.62-8-7.62h-10.5v15.3h10.5c4.76.04 8-3.18 8-7.64zm9.36 13.5c0-8.4 5.52-15.18 14.34-15.18s14.34 6.78 14.34 15.18-5.52 15.24-14.34 15.24-14.34-6.86-14.34-15.24zm23.94 0c0-5.88-3.42-11.16-9.6-11.16s-9.66 5.28-9.66 11.16 3.48 11.22 9.66 11.22 9.6-5.3 9.6-11.22zm9.54 10.66l2.34-3.24a13.13 13.13 0 0 0 9.54 4.14c4.44 0 6.84-2.1 6.84-5 0-7-17.94-2.7-17.94-13.44 0-4.5 3.9-8.34 10.8-8.34a14.66 14.66 0 0 1 10.74 4.2l-2.1 3.12a11.29 11.29 0 0 0-8.64-3.66c-4 0-6.42 2-6.42 4.56 0 6.36 17.94 2.16 17.94 13.44 0 4.86-3.9 8.76-11.4 8.76-4.74.02-8.76-1.42-11.7-4.54zm28.74-10.66c0-8.4 6-15.18 14.28-15.18 8.76 0 13.92 6.84 13.92 15.54v1.14H1702c.36 5.46 4.2 10 10.44 10a12.67 12.67 0 0 0 8.94-3.66l2.16 2.94a15.74 15.74 0 0 1-11.52 4.44c-8.62 0-14.8-6.22-14.8-15.22zm14.22-11.46c-6.18 0-9.24 5.22-9.48 9.66h19c-.04-4.34-2.96-9.68-9.52-9.68zm40.8 25.96v-19c0-5.1-2.58-6.72-6.48-6.72a11.19 11.19 0 0 0-8.58 4.5v21.18h-4.5v-29h4.5v4.2a14.37 14.37 0 0 1 10.32-4.92c6.06 0 9.24 3.06 9.24 9.36v20.34z" fill="#32325d"/><path d="M566.42 1620.9v-30h14.76c5.49 0 8.55 3.42 8.55 7.65a6.75 6.75 0 0 1-5.22 6.89c3.2.49 5.81 3.69 5.81 7.38 0 4.63-3.11 8.1-8.73 8.1zm17.91-21.47c0-2.25-1.53-3.91-4.23-3.91h-8.41v7.78h8.41c2.7 0 4.23-1.62 4.23-3.87zm.59 12.65c0-2.25-1.58-4.14-4.59-4.14h-8.64v8.32h8.64c2.88 0 4.59-1.57 4.59-4.18zm12.91 8.82v-30h5.27v30zm13.91 0v-30H617v25.38h13.23v4.64zm25.51 0v-30h5.27v25.38h13.23v4.64zm25.52 0v-30H668v30zm34.83 0l-15.66-21.42v21.42h-5.27v-30h5.4l15.35 20.84v-20.84h5.26v30zm12.4-14.99c0-9.4 7.07-15.52 15.75-15.52a14.13 14.13 0 0 1 12.11 6.25l-4.32 2.43a9.56 9.56 0 0 0-7.79-4c-5.94 0-10.35 4.54-10.35 10.84s4.41 10.89 10.35 10.89a11 11 0 0 0 7.11-2.7v-4.68h-9v-4.63h14.24V1616a16.31 16.31 0 0 1-12.38 5.44c-8.72.04-15.72-6.12-15.72-15.53zm70.67 14.99l-2.21-5.76h-13.77l-2.2 5.76h-6l11.79-30h6.57l11.79 30zm-9.09-24.71l-5.4 14.31H777zm20.61 24.71v-30h11.16c9.36 0 15.7 6.21 15.7 15s-6.34 15-15.7 15zm21.46-15c0-5.8-3.6-10.39-10.3-10.39h-5.9v20.74h5.9c6.52.01 10.3-4.67 10.3-10.34zm12.74 15v-30h11.16c9.36 0 15.7 6.21 15.7 15s-6.34 15-15.7 15zm21.46-15c0-5.8-3.6-10.39-10.3-10.39h-5.9v20.74h5.9c6.52.01 10.3-4.67 10.3-10.34zm29.88 15l-6.66-11.21h-5.22v11.21h-5.26v-30h13.18c5.94 0 9.81 3.87 9.81 9.41 0 5.35-3.51 8.23-7.11 8.82l7.33 11.79zm.45-20.61c0-2.88-2.16-4.77-5.13-4.77h-7.2v9.54h7.2c2.95 0 5.13-1.89 5.13-4.77zm12.92 20.61v-30h20.56v4.64h-15.3v7.78h15v4.64h-15v8.32h15.3v4.64zm26.28-4.23l2.92-4.05a13 13 0 0 0 9.49 4.14c4.32 0 6-2.12 6-4.1 0-6.3-17.5-2.38-17.5-13.45 0-5 4.37-8.78 10.93-8.78a15.62 15.62 0 0 1 11.25 4.19l-3 3.91a12.21 12.21 0 0 0-8.69-3.42c-3.1 0-5.08 1.49-5.08 3.74 0 5.58 17.46 2.11 17.46 13.32 0 5-3.51 9.27-11.61 9.27-5.55 0-9.55-1.94-12.17-4.77zm28.97 0l2.93-4.05a13 13 0 0 0 9.49 4.14c4.32 0 6-2.12 6-4.1 0-6.3-17.5-2.38-17.5-13.45 0-5 4.36-8.78 10.93-8.78a15.62 15.62 0 0 1 11.25 4.19l-3 3.91a12.21 12.21 0 0 0-8.69-3.42c-3.1 0-5.08 1.49-5.08 3.74 0 5.58 17.46 2.11 17.46 13.32 0 5-3.51 9.27-11.61 9.27-5.53 0-9.53-1.94-12.18-4.77z" fill="#8898aa"/><rect x="562.5" y="1351" width="950.86" height="146.62" rx="15" ry="15" fill="none" stroke="#cfd7df" stroke-linecap="round" stroke-linejoin="round" stroke-width="4.5"/><path d="M1485.89 1370.78H1358a7.5 7.5 0 0 0-7.5 7.5v92.06a7.5 7.5 0 0 0 7.5 7.5h127.92a7.5 7.5 0 0 0 7.5-7.5v-92.06a7.5 7.5 0 0 0-7.53-7.5zm-103.13 70.38l-6.87-26.54c-.41-1.63-.78-2.23-2-2.92a36.47 36.47 0 0 0-8.5-2.83l.2-1h14.66a4 4 0 0 1 4 3.38l3.63 19.25 9-22.63h9l-14 33.25zm19.63 0l7.12-33.25h8.62l-7.12 33.25zm24.1.52a26.19 26.19 0 0 1-9.57-1.76l1.56-7.29a18 18 0 0 0 8.85 2.1c2.47 0 5.13-1 5.15-3.26 0-1.45-1.11-2.5-4.47-4.13s-7.59-4.26-7.54-9c0-6.47 6-11 14.56-11a23.19 23.19 0 0 1 8 1.47l-1.51 7a16.42 16.42 0 0 0-8.49-1.49c-2.49.33-3.63 1.6-3.65 2.79-.08 3.92 12.1 4.41 12.06 13.18.03 6.93-5.89 11.39-14.95 11.39zm37.49-.52l-1-5h-11l-1.8 5h-9l12.93-30.82a3.93 3.93 0 0 1 3.67-2.43h7.22l7 33.25zm-9.62-11.78h7.15l-2.61-12.49z" fill="#6772e5"/><rect x="592.5" y="1378" width="428.86" height="15" rx="6" ry="6" fill="#e6ebf1"/><path d="M613.44 1460.5v-10.14h-19v-4.14l17.16-25.74h6.84V1446h5.64v4.38h-5.64v10.14zm0-35.4l-14 20.88h14zm15.78 35.4v-4c14.4-11.34 22.2-18 22.2-24.9 0-5.1-4.2-7.32-8.34-7.32a13.38 13.38 0 0 0-10.86 5l-3.06-3.18c3.06-4 8.28-6.3 13.92-6.3 6.66 0 13.44 3.78 13.44 11.76 0 8.16-8.28 15.6-19.44 24.42h19.62v4.44zm52.98 0v-10.14h-19v-4.14l17.16-25.74h6.84V1446h5.64v4.38h-5.64v10.14zm0-35.4l-14 20.88h14zm15.8 35.4v-4c14.4-11.34 22.2-18 22.2-24.9 0-5.1-4.2-7.32-8.34-7.32a13.38 13.38 0 0 0-10.86 5l-3.06-3.18c3.06-4 8.28-6.3 13.92-6.3 6.66 0 13.44 3.78 13.44 11.76 0 8.16-8.28 15.6-19.44 24.42h19.62v4.44zm50.62-10.14c0-5.34 4.56-9 9.54-10.5-4.62-1.32-8.88-4.32-8.88-9.6 0-7.2 7-10.38 13.68-10.38s13.74 3.18 13.74 10.38c0 5.28-4.32 8.28-8.94 9.6 5 1.5 9.54 5.16 9.54 10.5 0 6.78-6.48 10.86-14.34 10.86s-14.34-4.02-14.34-10.86zm23.64-.54c0-5.22-6.84-7.44-9.3-7.74-2.46.3-9.36 2.52-9.36 7.74 0 4.32 4.38 7 9.36 7s9.3-2.68 9.3-7zm-.6-18.9c0-4.14-3.9-6.6-8.7-6.6s-8.7 2.46-8.7 6.6c0 4.86 6.3 6.48 8.7 6.9 2.46-.42 8.7-2.04 8.7-6.9zm11.94 29.58v-4c14.4-11.34 22.2-18 22.2-24.9 0-5.1-4.2-7.32-8.34-7.32a13.38 13.38 0 0 0-10.86 5l-3.06-3.18c3.06-4 8.28-6.3 13.92-6.3 6.66 0 13.44 3.78 13.44 11.76 0 8.16-8.28 15.6-19.44 24.42h19.62v4.44zm35.28 0v-4c14.4-11.34 22.2-18 22.2-24.9 0-5.1-4.2-7.32-8.34-7.32a13.38 13.38 0 0 0-10.86 5l-3.06-3.18c3.06-4 8.28-6.3 13.92-6.3 6.66 0 13.44 3.78 13.44 11.76 0 8.16-8.28 15.6-19.44 24.42h19.62v4.44zm52.98 0v-10.14h-19v-4.14l17.14-25.74h6.84V1446h5.64v4.38h-5.64v10.14zm0-35.4l-14 20.88h14zm31.08 15.48c0-10.86 5-20.7 16.26-20.7a13.92 13.92 0 0 1 11.1 4.8l-2.52 3.72a10.26 10.26 0 0 0-8.58-4.08c-7.74 0-11.28 7.86-11.28 15.72a13.56 13.56 0 0 0 .06 1.56 14.38 14.38 0 0 1 11.34-6.24c7.2 0 13.08 4.26 13.08 12.78 0 7-5.28 13.08-14 13.08-11.2 0-15.46-9.78-15.46-20.64zm24.42 7.74c0-5.88-4.08-8.64-9.24-8.64a12.3 12.3 0 0 0-10 6c.48 5 3.12 11.1 10.08 11.1 6.16 0 9.16-4.62 9.16-8.46zm9.72 6.3l2.94-3.12a13.9 13.9 0 0 0 11.16 5.28c5.82 0 9.36-2.88 9.36-7.5 0-5-4.08-7.08-10-7.08-1.68 0-3.54 0-4.14.06v-4.56c.66.06 2.52.06 4.14.06 5 0 9.3-2 9.3-6.6 0-4.44-4.08-6.84-8.94-6.84a13.56 13.56 0 0 0-10.56 4.86l-2.76-3.12a17.34 17.34 0 0 1 13.68-6.18c7.68 0 13.56 3.9 13.56 10.68 0 5.76-4.86 8.64-8.64 9.3 3.66.3 9.24 3.42 9.24 9.84 0 6.66-5.34 11.52-14.16 11.52-6.74 0-11.72-3-14.18-6.6zm42.36 5.88v-33.42l-6.42 6.78-3-3.06 10-10.32h4.38v40zm12.72-19.98c0-9.78 4.32-20.64 15.3-20.64s15.29 10.86 15.29 20.64-4.37 20.7-15.29 20.7-15.3-10.98-15.3-20.7zm25.5 0c0-8-2.58-16.2-10.2-16.2s-10.2 8.22-10.2 16.2 2.58 16.26 10.2 16.26 10.2-8.28 10.2-16.26zm26.76 9.84c0-5.34 4.56-9 9.54-10.5-4.62-1.32-8.88-4.32-8.88-9.6 0-7.2 7-10.38 13.68-10.38s13.73 3.18 13.73 10.38c0 5.28-4.32 8.28-8.93 9.6 5 1.5 9.53 5.16 9.53 10.5 0 6.78-6.48 10.86-14.33 10.86s-14.34-4.02-14.34-10.86zm23.63-.54c0-5.22-6.84-7.44-9.29-7.74-2.46.3-9.36 2.52-9.36 7.74 0 4.32 4.38 7 9.36 7s9.29-2.68 9.29-7zm-.59-18.9c0-4.14-3.9-6.6-8.7-6.6s-8.7 2.46-8.7 6.6c0 4.86 6.3 6.48 8.7 6.9 2.45-.42 8.7-2.04 8.7-6.9zm11.94 29.58v-4c14.39-11.34 22.19-18 22.19-24.9 0-5.1-4.19-7.32-8.34-7.32a13.37 13.37 0 0 0-10.85 5l-3.06-3.18c3.06-4 8.28-6.3 13.91-6.3 6.67 0 13.44 3.78 13.44 11.76 0 8.16-8.27 15.6-19.43 24.42h19.61v4.44zm42.72 0v-33.42l-6.42 6.78-3-3.06 10-10.32h4.38v40zm12.71-19.98c0-9.78 4.32-20.64 15.3-20.64s15.3 10.86 15.3 20.64-4.38 20.7-15.3 20.7-15.3-10.98-15.3-20.7zm25.5 0c0-8-2.58-16.2-10.2-16.2s-10.2 8.22-10.2 16.2 2.58 16.26 10.2 16.26 10.2-8.28 10.2-16.26z" fill="#32325d"/><rect x="1566.33" y="1351" width="446.2" height="146.62" rx="15" ry="15" fill="none" stroke="#cfd7df" stroke-linecap="round" stroke-linejoin="round" stroke-width="4.5"/><rect x="1596.28" y="1378" width="167.25" height="15" rx="6" ry="6" fill="#e6ebf1"/><path d="M1600.56 1440.52c0-9.78 4.32-20.64 15.3-20.64s15.3 10.86 15.3 20.64-4.38 20.7-15.3 20.7-15.3-10.98-15.3-20.7zm25.5 0c0-8-2.58-16.2-10.2-16.2s-10.2 8.22-10.2 16.2 2.58 16.26 10.2 16.26 10.2-8.28 10.2-16.26zm13.2 15.84l2.52-3.72a10.34 10.34 0 0 0 8.58 4.08c8.1 0 11.28-8.1 11.28-15.66a14.62 14.62 0 0 0-.06-1.62 14.36 14.36 0 0 1-11.28 6.24c-7.2 0-13.14-4.26-13.14-12.78 0-6.9 5.28-13.08 14-13.08 11.22 0 15.48 9.78 15.48 20.7s-5 20.64-16.26 20.64a13.91 13.91 0 0 1-11.12-4.8zm22.14-20.94c-.42-5-3.06-11.16-10-11.16-6.12 0-9.18 4.68-9.18 8.46 0 5.88 4.08 8.64 9.24 8.64a12 12 0 0 0 9.94-5.94zm23.76 26.28l14.22-42.42h3.54l-14.22 42.42zm36.48-1.2v-4c14.4-11.34 22.2-18 22.2-24.9 0-5.1-4.2-7.32-8.34-7.32a13.38 13.38 0 0 0-10.86 5l-3.06-3.18c3.06-4 8.28-6.3 13.92-6.3 6.66 0 13.44 3.78 13.44 11.76 0 8.16-8.28 15.6-19.44 24.42h19.62v4.44zm35.1-19.98c0-9.78 4.32-20.64 15.3-20.64s15.3 10.86 15.3 20.64-4.38 20.7-15.3 20.7-15.3-10.98-15.3-20.7zm25.5 0c0-8-2.58-16.2-10.2-16.2s-10.2 8.22-10.2 16.2 2.58 16.26 10.2 16.26 10.2-8.28 10.2-16.26zm18.84 19.98v-33.42l-6.42 6.78-3-3.06 10-10.32h4.38v40zm14.7-4.14l2.52-3.72a10.34 10.34 0 0 0 8.58 4.08c8.1 0 11.28-8.1 11.28-15.66a14.62 14.62 0 0 0-.06-1.62 14.36 14.36 0 0 1-11.28 6.24c-7.2 0-13.14-4.26-13.14-12.78 0-6.9 5.28-13.08 14-13.08 11.22 0 15.48 9.78 15.48 20.7s-5 20.64-16.26 20.64a13.91 13.91 0 0 1-11.12-4.8zm22.14-20.94c-.42-5-3.06-11.16-10-11.16-6.12 0-9.18 4.68-9.18 8.46 0 5.88 4.08 8.64 9.24 8.64a12 12 0 0 0 9.94-5.94z" fill="#32325d"/><rect x="2062.83" y="1351" width="446.67" height="146.62" rx="15" ry="15" fill="none" stroke="#cfd7df" stroke-linecap="round" stroke-linejoin="round" stroke-width="4.5"/><rect x="2092.78" y="1378" width="80.25" height="15" rx="6" ry="6" fill="#e6ebf1"/><rect x="2412.28" y="1394.5" width="60" height="60" rx="6" ry="6" fill="#e6ebf1"/><path d="M2101.26 1460.5l16.14-35.58h-21.54v-4.44h27.3v3.42l-16.38 36.6zm26.74-10.14c0-5.34 4.56-9 9.54-10.5-4.62-1.32-8.88-4.32-8.88-9.6 0-7.2 7-10.38 13.68-10.38s13.74 3.18 13.74 10.38c0 5.28-4.32 8.28-8.94 9.6 5 1.5 9.54 5.16 9.54 10.5 0 6.78-6.48 10.86-14.34 10.86s-14.34-4.02-14.34-10.86zm23.64-.54c0-5.22-6.84-7.44-9.3-7.74-2.46.3-9.36 2.52-9.36 7.74 0 4.32 4.38 7 9.36 7s9.32-2.68 9.32-7zm-.6-18.9c0-4.14-3.9-6.6-8.7-6.6s-8.7 2.46-8.7 6.6c0 4.86 6.3 6.48 8.7 6.9 2.48-.42 8.72-2.04 8.72-6.9zm13.76 25.44l2.52-3.72a10.34 10.34 0 0 0 8.58 4.08c8.1 0 11.28-8.1 11.28-15.66a14.62 14.62 0 0 0-.06-1.62 14.36 14.36 0 0 1-11.28 6.24c-7.2 0-13.14-4.26-13.14-12.78 0-6.9 5.28-13.08 14-13.08 11.22 0 15.48 9.78 15.48 20.7s-5 20.64-16.26 20.64a13.91 13.91 0 0 1-11.12-4.8zm22.14-20.94c-.42-5-3.06-11.16-10-11.16-6.12 0-9.18 4.68-9.18 8.46 0 5.88 4.08 8.64 9.24 8.64a12 12 0 0 0 9.94-5.94z" fill="#32325d"/><path d="M565.07 1278.91c0-9.22 6.89-15.52 15.75-15.52a13.56 13.56 0 0 1 12.06 6.75l-4.5 2.29a8.92 8.92 0 0 0-7.56-4.36c-5.94 0-10.35 4.54-10.35 10.84s4.41 10.85 10.35 10.85a8.82 8.82 0 0 0 7.56-4.37l4.5 2.3a13.61 13.61 0 0 1-12.06 6.75c-8.82 0-15.75-6.3-15.75-15.53zm55.08 14.99l-2.2-5.76h-13.77l-2.2 5.76h-6l11.79-30h6.57l11.79 30zm-9.09-24.71l-5.39 14.31h10.79zm37.76 24.71l-6.66-11.21h-5.22v11.21h-5.27v-30h13.19c5.94 0 9.81 3.87 9.81 9.41 0 5.35-3.51 8.23-7.11 8.82l7.33 11.79zm.45-20.61c0-2.88-2.16-4.77-5.13-4.77h-7.2v9.54h7.2c2.97 0 5.13-1.89 5.13-4.77zm12.91 20.61v-30h11.16c9.36 0 15.71 6.21 15.71 15s-6.35 15-15.71 15zm21.47-15c0-5.8-3.6-10.39-10.31-10.39h-5.89v20.74h5.89c6.53.01 10.31-4.67 10.31-10.34zm26.55 15v-30h11.16c9.36 0 15.7 6.21 15.7 15s-6.34 15-15.7 15zm21.46-15c0-5.8-3.6-10.39-10.3-10.39h-5.9v20.74h5.9c6.52.01 10.3-4.67 10.3-10.34zm12.74 15v-30H765v4.64h-15.3v7.78h15v4.64h-15v8.32H765v4.64zm35.37 0v-25.38h-9.09v-4.64h23.44v4.64H785v25.38zm39.15 0l-2.21-5.76h-13.77l-2.2 5.76h-6l11.79-30h6.57l11.79 30zm-9.09-24.71l-5.4 14.31h10.8zm20.61 24.71v-30h5.26v30zm13.9 0v-30h5.27v25.38h13.23v4.64zm23.58-4.23l2.93-4.05a13 13 0 0 0 9.49 4.14c4.32 0 6-2.12 6-4.1 0-6.3-17.5-2.38-17.5-13.45 0-5 4.36-8.78 10.93-8.78a15.62 15.62 0 0 1 11.25 4.19l-3 3.91a12.21 12.21 0 0 0-8.69-3.42c-3.1 0-5.08 1.49-5.08 3.74 0 5.58 17.46 2.11 17.46 13.32 0 5-3.51 9.27-11.61 9.27-5.52 0-9.52-1.94-12.18-4.77z" fill="#8898aa"/><path fill="#e6ebf1" d="M562.5 1144h1947v6h-1947z"/><path fill="#0080ff" d="M562.5 1144h453v6h-453zm2.94-58.59c0-11.07 8.27-18.63 18.9-18.63a16.3 16.3 0 0 1 14.48 8.1l-5.4 2.76a10.71 10.71 0 0 0-9.08-5.24c-7.12 0-12.42 5.45-12.42 13s5.3 13 12.42 13a10.6 10.6 0 0 0 9.08-5.24l5.4 2.75a16.35 16.35 0 0 1-14.48 8.1c-10.63-.01-18.9-7.53-18.9-18.6zm38.29 17.99v-26.09h5.67v3.84a11.12 11.12 0 0 1 8.48-4.43v5.62a8.2 8.2 0 0 0-1.78-.17c-2.38 0-5.57 1.62-6.7 3.46v17.77zm17.12-13.07c0-7.56 5.5-13.66 13.23-13.66s12.85 6 12.85 14.2v1.35h-20.14a7.9 7.9 0 0 0 8.31 7.18 11 11 0 0 0 7.4-2.86l2.59 3.73a15.2 15.2 0 0 1-10.58 3.77c-7.83-.04-13.66-5.45-13.66-13.71zm13.23-9c-4.86 0-7.08 3.73-7.35 6.91h14.69a7 7 0 0 0-7.34-6.93zm36.82 22.07v-3.57a10.55 10.55 0 0 1-8.37 4.21c-6.69 0-11.61-5.07-11.61-13.66 0-8.42 4.86-13.71 11.61-13.71a10.46 10.46 0 0 1 8.37 4.26v-13.55h5.67v36zm0-7.83v-10.37a8.54 8.54 0 0 0-6.75-3.51c-4.48 0-7.34 3.62-7.34 8.69s2.86 8.64 7.34 8.64a8.52 8.52 0 0 0 6.75-3.45zm12.32-24.95a3.51 3.51 0 1 1 3.51 3.51 3.53 3.53 0 0 1-3.51-3.51zm.7 32.78v-26.09h5.67v26.09zm14.15-6.05v-15.07h-4.32v-5h4.32v-7.12h5.67v7.12H709v5h-5.29v13.66c0 1.79.86 3.08 2.48 3.08a3.64 3.64 0 0 0 2.54-.92l1.35 4.27c-1 1-2.7 1.67-5.35 1.67-4.34-.04-6.66-2.37-6.66-6.69zm26.29 7.13l12.8-38.18h4.21l-12.8 38.18zm34.72-1.08v-36h13.4c11.23 0 18.84 7.45 18.84 18s-7.61 18-18.84 18zm25.76-18c0-7-4.32-12.47-12.36-12.47h-7.08v24.89h7.08c7.83.01 12.36-5.6 12.36-12.41zm10.8 4.93c0-7.56 5.51-13.66 13.23-13.66s12.85 6 12.85 14.2v1.35h-20.14a7.9 7.9 0 0 0 8.32 7.18 11 11 0 0 0 7.39-2.86l2.6 3.73a15.24 15.24 0 0 1-10.59 3.73c-7.83 0-13.66-5.41-13.66-13.67zm13.23-9c-4.86 0-7.07 3.73-7.34 6.91h14.68a7 7 0 0 0-7.34-6.93zm18.47 22.07v-36H833v13.55a10.31 10.31 0 0 1 8.37-4.26c6.69 0 11.55 5.29 11.55 13.71 0 8.59-4.91 13.66-11.55 13.66a10.49 10.49 0 0 1-8.37-4.21v3.57zm12.36-4.4c4.54 0 7.4-3.56 7.4-8.64s-2.86-8.69-7.4-8.69a8.51 8.51 0 0 0-6.69 3.56v10.32a8.42 8.42 0 0 0 6.69 3.45zm18.3-28.38a3.51 3.51 0 1 1 3.51 3.51 3.53 3.53 0 0 1-3.51-3.51zm.7 32.78v-26.09h5.67v26.09zm14.16-6.05v-15.07h-4.32v-5h4.32v-7.12h5.67v7.12h5.29v5h-5.29v13.66c0 1.79.86 3.08 2.48 3.08a3.64 3.64 0 0 0 2.54-.92l1.35 4.27c-1 1-2.7 1.67-5.34 1.67-4.38-.04-6.7-2.37-6.7-6.69zm28.51-11.94c0-11.07 8.26-18.63 18.9-18.63a16.28 16.28 0 0 1 14.47 8.1l-5.4 2.76a10.69 10.69 0 0 0-9.07-5.24c-7.13 0-12.42 5.45-12.42 13s5.29 13 12.42 13a10.58 10.58 0 0 0 9.07-5.24l5.4 2.75a16.32 16.32 0 0 1-14.47 8.1c-10.64-.01-18.9-7.53-18.9-18.6zm54.22 17.99v-2.81a11 11 0 0 1-8.43 3.45c-4.26 0-9.07-2.86-9.07-8.64 0-6 4.81-8.47 9.07-8.47 3.51 0 6.54 1.13 8.43 3.34v-3.88c0-3-2.49-4.86-6.11-4.86a10.7 10.7 0 0 0-7.72 3.29l-2.32-3.94a15.5 15.5 0 0 1 11-4.21c5.78 0 10.86 2.43 10.86 9.45v17.28zm0-5.94v-4a7.65 7.65 0 0 0-6.21-2.7c-3.19 0-5.57 1.84-5.57 4.7s2.38 4.65 5.57 4.65a7.65 7.65 0 0 0 6.21-2.65zm13.01 5.94v-26.09h5.67v3.84a11.12 11.12 0 0 1 8.48-4.43v5.62a8.2 8.2 0 0 0-1.78-.17c-2.38 0-5.57 1.62-6.7 3.46v17.77zm37.1 0v-3.57a10.58 10.58 0 0 1-8.37 4.21c-6.7 0-11.61-5.07-11.61-13.66 0-8.42 4.86-13.71 11.61-13.71a10.47 10.47 0 0 1 8.37 4.26v-13.55h5.67v36zm0-7.83v-10.37a8.56 8.56 0 0 0-6.75-3.51c-4.49 0-7.35 3.62-7.35 8.69s2.86 8.64 7.35 8.64a8.53 8.53 0 0 0 6.75-3.45z"/><circle cx="2052.38" cy="516.05" r="30.8" fill="none" stroke="#0080ff" stroke-linecap="round" stroke-linejoin="round" stroke-width="7.5" opacity=".3"/><rect x="2122.92" y="502.5" width="236.25" height="27" rx="6" ry="6" fill="#0080ff" opacity=".3"/><circle cx="1399.88" cy="516.05" r="30.8" fill="none" stroke="#0080ff" stroke-linecap="round" stroke-linejoin="round" stroke-width="7.5"/><rect x="1470.42" y="502.5" width="236.25" height="27" rx="6" ry="6" fill="#0080ff"/><circle cx="732.38" cy="516.05" r="30.8" fill="none" stroke="#0080ff" stroke-linecap="round" stroke-linejoin="round" stroke-width="7.5" opacity=".3"/><rect x="802.92" y="502.5" width="236.25" height="27" rx="6" ry="6" fill="#0080ff" opacity=".3"/><path d="M456.72 280.53C425.13 270.67 396 294.14 396 324.3h17.83c0-18.92 18.73-33.55 38.63-26.33a26.67 26.67 0 0 1 15.92 15.92c7.22 19.88-7.39 38.6-26.29 38.63v-17.74h-17.78v17.77h-13.66V341.1H399.2v11.44h11.44v13.66h13.67v-13.65h17.74v17.79c30.15 0 53.62-29.13 43.76-60.72a44.51 44.51 0 0 0-29.09-29.09zm103.22 24.35c-5.27-3.66-11.83-5.52-19.5-5.52h-16.69v53h16.69c7.65 0 14.22-2 19.51-5.82a20.1 20.1 0 0 0 6.73-8.49 30.82 30.82 0 0 0 2.38-12.51 30.08 30.08 0 0 0-2.38-12.36 19.06 19.06 0 0 0-6.74-8.3zm-7 35c-3.49 2.31-8.26 3.48-14.18 3.48h-5.26v-35.05h5.24c5.83 0 10.63 1.15 14.26 3.41 4 2.44 6.09 7.07 6.09 13.78 0 6.9-2.09 11.74-6.09 14.39zm27.69-41.18a5.61 5.61 0 0 0-4.1 1.68 5.39 5.39 0 0 0-1.7 4.05 5.8 5.8 0 1 0 11.59 0 5.38 5.38 0 0 0-1.69-4 5.61 5.61 0 0 0-4.05-1.72zm-4.79 53.61h9.39V315h-9.39zm43.47-34.18a14.12 14.12 0 0 0-9.41-4 16.82 16.82 0 0 0-12.79 5.32 18.66 18.66 0 0 0-5.06 13.4 19.08 19.08 0 0 0 5 13.36 17.06 17.06 0 0 0 12.95 5.27 14.61 14.61 0 0 0 9.27-3v.85c0 3.1-.83 5.51-2.47 7.16A9.06 9.06 0 0 1 610 359c-4.34 0-7-1.7-10.36-6.17l-6.36 6.17.18.24a22.89 22.89 0 0 0 6.28 5.64 19 19 0 0 0 10.43 2.7c5.57 0 10.08-1.72 13.4-5.1s5-8 5-13.55V315h-9.24zm-2.46 22a8.08 8.08 0 0 1-6.44 2.77 8 8 0 0 1-6.4-2.76 10.79 10.79 0 0 1-2.43-7.3 11 11 0 0 1 2.43-7.39 8.79 8.79 0 0 1 12.84 0 10.85 10.85 0 0 1 2.46 7.38 10.67 10.67 0 0 1-2.41 7.33zm19.73 12.16H646V315h-9.39zm4.79-53.61a5.61 5.61 0 0 0-4.1 1.68 5.39 5.39 0 0 0-1.7 4.05 5.8 5.8 0 1 0 11.59 0 5.38 5.38 0 0 0-1.69-4 5.61 5.61 0 0 0-4.05-1.7zm25.17 6.23h-9.24V315H652v8.55h5.37v15.5c0 4.84 1 8.31 2.88 10.3s5.32 3 10.11 3c1.53 0 3.06-.05 4.56-.15h.42v-8.54l-3.22.17c-2.23 0-3.72-.4-4.43-1.17s-1.08-2.45-1.08-4.93v-14.16h8.73V315h-8.73zm52.74 47.38h9.38v-53h-9.38zm99.48-9a8.84 8.84 0 0 1-4.87 1.26 8.58 8.58 0 0 1-6.8-3.08 12.85 12.85 0 0 1 0-15.75 8.48 8.48 0 0 1 6.76-3.07c3 0 6.21 1.88 8.94 5.11l6.2-5.95a18.47 18.47 0 0 0-15.36-7.71 18.05 18.05 0 0 0-13.27 5.58 20.43 20.43 0 0 0 0 27.84 18 18 0 0 0 13.28 5.58 18.59 18.59 0 0 0 16-8.31l-6.1-5.86a26.62 26.62 0 0 1-4.73 4.41zM862 320.18a14.16 14.16 0 0 0-5.39-4.44 17.6 17.6 0 0 0-7.76-1.64 15.92 15.92 0 0 0-12.74 5.75 21.36 21.36 0 0 0-4.71 14c0 5.65 1.74 10.33 5.17 13.9s8 5.36 13.55 5.36a18.69 18.69 0 0 0 15.44-7.61l.21-.27-6.12-5.88a26.45 26.45 0 0 1-2.11 2.15 11.36 11.36 0 0 1-2.73 2 10.41 10.41 0 0 1-4.73 1.05 9.13 9.13 0 0 1-6.4-2.28 8.57 8.57 0 0 1-2.68-5.66h24.86l.09-3.43a24.3 24.3 0 0 0-1-6.94 20.35 20.35 0 0 0-2.9-6.01zM841.54 329a9.19 9.19 0 0 1 2.45-4.42 6.74 6.74 0 0 1 4.92-1.89 6.85 6.85 0 0 1 5.23 1.93A7 7 0 0 1 856 329zm56.55-11.2c-2.84-2.43-6.78-3.66-11.68-3.66a19 19 0 0 0-8.69 2 15.42 15.42 0 0 0-6.37 6l.1.12 6 5.75c2.47-3.95 5.22-5.32 8.87-5.32a7.35 7.35 0 0 1 4.84 1.57 4.89 4.89 0 0 1 1.85 4v1.81a23.64 23.64 0 0 0-6.9-1.07c-4.67 0-8.47 1.1-11.3 3.27a11.11 11.11 0 0 0-4.31 9.33 10.74 10.74 0 0 0 3.64 8.46 13.72 13.72 0 0 0 9.07 3.08 15.78 15.78 0 0 0 9.95-3.9v3.07h9.24v-24c.01-4.51-1.4-8.05-4.31-10.5zM893 342a11.49 11.49 0 0 1-8.1 2.85 5.8 5.8 0 0 1-3.75-1.07 3.3 3.3 0 0 1-1.25-2.78 3.39 3.39 0 0 1 1.53-3 7.77 7.77 0 0 1 4.47-1 20.84 20.84 0 0 1 7.1 1.3zm45.49-23.42c-2.61-2.91-6.29-4.39-10.92-4.39a12.74 12.74 0 0 0-9 3.18V315h-9.2v37.3h9.39v-20.55a10.22 10.22 0 0 1 2-6.67 6.77 6.77 0 0 1 5.56-2.38 6 6 0 0 1 4.93 2.12 9 9 0 0 1 1.8 5.88v21.62h9.38V330.7c0-5.17-1.32-9.26-3.92-12.16zm-231-.73c-2.84-2.43-6.77-3.66-11.68-3.66a19.06 19.06 0 0 0-8.69 2 15.34 15.34 0 0 0-6.36 6l.09.12 6 5.75c2.48-3.95 5.23-5.32 8.88-5.32a7.35 7.35 0 0 1 4.84 1.57 4.92 4.92 0 0 1 1.85 4v1.81a23.71 23.71 0 0 0-6.91-1.07c-4.67 0-8.47 1.1-11.29 3.27a11.11 11.11 0 0 0-4.31 9.33 10.71 10.71 0 0 0 3.64 8.46 13.72 13.72 0 0 0 9.06 3.08 15.76 15.76 0 0 0 10-3.9v3.07h9.24v-24c0-4.56-1.45-8.1-4.32-10.55zM702.47 342a11.51 11.51 0 0 1-8.11 2.85 5.82 5.82 0 0 1-3.75-1.07 3.33 3.33 0 0 1-1.27-2.71 3.39 3.39 0 0 1 1.53-3 7.77 7.77 0 0 1 4.47-1.11 20.9 20.9 0 0 1 7.13 1.35zm60.3-43.44a27.3 27.3 0 1 0 27.29 27.3 27.32 27.32 0 0 0-27.29-27.34zm0 45a17.68 17.68 0 1 1 17.67-17.67 17.7 17.7 0 0 1-17.67 17.6z" fill="#0080ff"/><ellipse cx="2568.23" cy="331.55" rx="58.5" ry="58.48" fill="#e6ebf1"/><path fill="none" stroke="#aab7c4" stroke-linecap="round" stroke-linejoin="round" stroke-width="6" d="M2648.05 324.01l12.92 12.93 12.93-12.93"/><path fill="#cfd7df" d="M0 187.5h3072v4.5H0z"/><path fill="#e6ebf1" d="M0 0h3072v187.5H0z"/><rect x="540" y="73.5" width="1992" height="87" rx="15" ry="15" fill="#cfd7df"/><rect x="1291.5" y="103.5" width="489" height="27" rx="6" ry="6" fill="#aab7c4"/><path d="M1258.5 111.8V108a12 12 0 0 0-24 0v3.8a6 6 0 0 0-3 5.19v12a6 6 0 0 0 6 6h18a6 6 0 0 0 6-6V117a6 6 0 0 0-3-5.2zm-6 2.2h-12v-6a6 6 0 0 1 12 0z" fill="#aab7c4"/><path fill="none" stroke="#aab7c4" stroke-linecap="round" stroke-linejoin="round" stroke-width="4.5" d="M114.3 96.95l-21.6 21.6 21.6 21.6m138.9-.05l21.6-21.6-21.6-21.6m152.4-4.5c-13.2 0-14.4 9.6-14.4 9.6v43.2S396 138 408 138c10.8 0 12 9.6 12 9.6V102s-1.2-9.6-14.4-9.6zM420 102s1.2-9.6 14.4-9.6 14.4 9.6 14.4 9.6v43.2S444 138 432 138c-10.8 0-12 9.6-12 9.6"/><rect x="2630.4" y="100.65" width="43.2" height="43.2" rx="4.8" ry="4.8" fill="none" stroke="#aab7c4" stroke-linecap="round" stroke-linejoin="round" stroke-width="4.5"/><path fill="none" stroke="#aab7c4" stroke-linecap="round" stroke-linejoin="round" stroke-width="4.5" d="M2661.6 92.25l-9.6-9.6-9.6 9.6m170.1.75v48m-24-24h48"/><rect x="2947.03" y="101.25" width="43.22" height="43.22" rx="6" ry="6" fill="none" stroke="#aab7c4" stroke-linecap="round" stroke-linejoin="round" stroke-width="4.5"/><path d="M2998.65 131.25a4.8 4.8 0 0 0 4.8-4.8v-33.6a4.8 4.8 0 0 0-4.8-4.8h-33.6a4.8 4.8 0 0 0-4.8 4.8" fill="none" stroke="#aab7c4" stroke-linecap="round" stroke-linejoin="round" stroke-width="4.5"/><path opacity=".2" fill="url(#a)" d="M-3 0h3075v2304H-3z"/></svg>