<svg xmlns="http://www.w3.org/2000/svg" width="245" height="120" viewBox="0 0 245 120"><path d="M211 28a23.06 23.06 0 1 0 23 23.06A23.08 23.08 0 0 0 211 28m18 10.19a34.24 34.24 0 0 1-3.72 2.15 24 24 0 0 0-2.81-4.34 22.45 22.45 0 0 0 2.68-1.92 22.2 22.2 0 0 1 3.79 4.08m-9.7-7.65a21.61 21.61 0 0 1 5.16 3 21.84 21.84 0 0 1-2.54 1.79 23.87 23.87 0 0 0-3.8-3.51 11.57 11.57 0 0 0 1.18-1.25m1.76 5.23a21.65 21.65 0 0 1-3.89 1.63 35 35 0 0 0-1.92-3.76 11.42 11.42 0 0 0 2.1-1.23 24.12 24.12 0 0 1 3.71 3.36m-2.74-5.58a9.92 9.92 0 0 1-1 1 23.6 23.6 0 0 0-3.87-2.14 21.73 21.73 0 0 1 4.88 1.1m-1.79 1.64a8.93 8.93 0 0 1-1.78 1 33.92 33.92 0 0 0-2.23-3.09 24.29 24.29 0 0 1 4 2.1m-5.08-1.94a34.14 34.14 0 0 1 2.39 3.26 9.75 9.75 0 0 1-2.39.42zm0 4.63a10.6 10.6 0 0 0 2.91-.53 32.36 32.36 0 0 1 1.88 3.66 21 21 0 0 1-4.79.67zm-1-4.59v3.64a9.28 9.28 0 0 1-2.34-.42 32.53 32.53 0 0 1 2.34-3.22m-3.26 2.89a8.72 8.72 0 0 1-1.76-1 22.48 22.48 0 0 1 4-2.09 32.07 32.07 0 0 0-2.22 3.08m1.33-3.74a24.92 24.92 0 0 0-3.89 2.14 9 9 0 0 1-1-1 22 22 0 0 1 4.9-1.1m15.8 39.58c-3.06-1.68-3.12-4-3-4.88s.77-.48 1.14-.48c2 0 4.14-.6 6.75-3.27a10.25 10.25 0 0 0-.57-14.03c-4.88-4.69-10.08-3.87-13.41.35a5.15 5.15 0 0 1-3.82 1.45c-2.14-.08-.79 1.6-.79 2s-.33.6-.51.54c-.73-.2-.44.88-.44 1.2a.5.5 0 0 1-.46.49c-.9 0-.66.82-.63 1a.8.8 0 0 1-.35.76 2 2 0 0 0-.63 1.41c0 1 .9 1.66 2.39 2.78a3.54 3.54 0 0 1 1.71 2.94 9 9 0 0 0 .45 2.8c.4 1 .34 2.78-1.72 2.86-2.53.1-7 2.12-7.41 2.26a8.81 8.81 0 0 1-4.77.32 21.12 21.12 0 0 1-2.22-1.85 3.48 3.48 0 0 1 .73-2.84 4 4 0 0 0 2.81.81 33.5 33.5 0 0 0 4.65-.68 1.24 1.24 0 0 1 1 0c1.32.48 3.13.63 3.86-1.9s-1-1.83-1.22-1.72-.52.08-.41-.14c.32-.64-.16-.57-.43-.59a3.28 3.28 0 0 0-1.94 1 .68.68 0 0 1-.7.19c-.95-.47-3.74.21-4.6-1.31a51.8 51.8 0 0 0-1.12-7.62 1 1 0 0 1 .1-1c.72-1.06 2.67.09 3.73.06a1.9 1.9 0 0 0 1.83-1c.33-.42.58-.19.76-.3s0-.45.09-.61.18-.09.4-.28 0-.6.08-.76c.32-.47 1.17-.09.65-1.33a2 2 0 0 1 .5-1.91c.61-.8 3-4.14-1.2-7.62-4-3.32-8.06-3.05-10.67-.22s-1.31 7-1 8a2.29 2.29 0 0 1-1.42 2.51 20.74 20.74 0 0 0-3.57 2.5 22 22 0 0 1 13.85-20 11.47 11.47 0 0 0 1.17 1.25c-.91.67-2.92 2.47-2.92 2.47s.27 0 .52.1l.56.16s1.76-1.51 2.6-2.1a10.23 10.23 0 0 0 2.1 1.23c-.4.68-1.41 2.57-1.41 2.57s.24.14.44.28a3 3 0 0 1 .34.26s1.1-2.07 1.52-2.76a11 11 0 0 0 2.86.53v3.8c-.55 0-1.93-.08-2.5-.14h-.35l.19.29a4.34 4.34 0 0 1 .37.64l.05.08h.09c.41 0 1.68.08 2.15.09v6.91h1v-1.62c1.41-.07 2.58-.16 4-.29h.06l1.24-1.11-.67.07c-1.49.19-2.81.28-4 .35h-.62v-4.35a22.16 22.16 0 0 0 5.17-.73c.47 1.15 1.34 3.91 1.34 3.91l.9-.28s-.86-2.75-1.32-3.89a23.19 23.19 0 0 0 4.14-1.76 23.78 23.78 0 0 1 2.73 4.24c-.68.31-1.93.75-1.93.75a10.55 10.55 0 0 1 1.75.34l.58-.24c.09.19.26.6.26.6l1.24.55-.14-.35s-.41-1-.52-1.21a34.65 34.65 0 0 0 3.73-2.19 22.11 22.11 0 0 1-5.15 29.69M185.8 34.12l-.36.33c-1.35 1.19-4.44 4.35-4 7.82l.05.25.15.68.43-.4a14.23 14.23 0 0 0 3.9-8l.16-1-.36.32m-6.25 6l-.15.42a16.12 16.12 0 0 0-.81 3.41c-.29 2.29-.24 5.52 1.76 7.94l.22.29.23.29.29-1.47A28.7 28.7 0 0 0 180 40.52l-.32-.82-.16.42m-2.28 9.36v.43c-.24 2.33-.08 8.09 4.58 11.09l.54.36v-.65c-.07-2.18-2.62-8.7-4.54-11l-.54-.66v.42m.72 10.31l.09.39c.68 3.3 3.81 8.65 8.65 10.21l.66.21-.24-.65c-.9-2.47-5.56-8.23-8.56-10.13l-.67-.43.07.4" fill="#6b7c93"/><path d="M187.76 39.11l-.38.22c-3.61 2.21-5.29 4.87-5.17 8.15v.76l.52-.44a21.58 21.58 0 0 0 5.11-8.08l.25-.85-.37.24m-2.08 7.19l-.28.26c-.92.88-3.91 4.06-3.65 8a8.12 8.12 0 0 0 .42 1.92l.21.63.39-.54c1.42-2 3.31-7.3 3.21-9.77v-.75l-.27.26m.11 6.81l-.19.3a11.65 11.65 0 0 0-2.23 6.64 8.23 8.23 0 0 0 1.49 4.45l.32.46.26-.49c.65-1.22 1.17-5.18 1.09-8.32a10.76 10.76 0 0 0-.33-2.65l-.19-.69-.22.3m1.76 7.29l-.09.31a12.8 12.8 0 0 0-.63 4.22 8.26 8.26 0 0 0 4 7.09l.43.27.1-.58v-.47c-.06-2.48-1.91-8.72-3.35-10.63l-.4-.52-.1.31m-5.04 9.67l.19.31c1.94 3.26 5.23 7.45 11.38 6.37l.53-.08-.3-.44c-1.15-1.71-8.62-5.93-11.27-6.36l-.72-.11.19.31m9.11 8.26l-1 .26.93.38c3.92 1.6 8.82 2.07 11.67 1.12a6.44 6.44 0 0 0 2.52-1.73c5 .53 9.69 4.69 12.43 8.09l.14.17.22-.07a3.13 3.13 0 0 0 1-.68l.19-.21-.17-.23a24.81 24.81 0 0 0-7.5-6.14c-4-2-11.11-3.49-20.42-1m.2-10.38l.05.34c.58 3.68 2.09 8.52 8.32 8h.4l-.1-.39c-.43-1.68-6.14-6.54-8.13-7.92l-.59-.31.05.33m44.05-34.17l.16 1a14.19 14.19 0 0 0 3.89 8l.43.4.15-.68v-.25c.48-3.47-2.61-6.63-4-7.83l-.37-.32-.35-.32m6.57 5.9l-.32.82A28.49 28.49 0 0 0 240.93 51l.29 1.47.23-.29.22-.29c2-2.42 2.05-5.66 1.76-7.94a16.12 16.12 0 0 0-.81-3.41l-.15-.43-.16-.41m2.41 9.36l-.54.66c-1.9 2.33-4.46 8.85-4.53 11v.65l.56-.36c4.65-3 4.78-8.8 4.62-11.13v-.85M244 59.38l-.67.43c-3 1.9-7.66 7.66-8.56 10.13l-.25.65.67-.21c4.84-1.56 8-6.91 8.65-10.21l.09-.4.07-.39m-10-20.62l.25.86a21.45 21.45 0 0 0 4.94 8.18l.52.44v-.75c.19-3.28-1.45-6-5-8.25l-.38-.24-.38-.24m2.12 7.24v.75c-.09 2.47 1.79 7.76 3.23 9.77l.39.54.2-.63a6.83 6.83 0 0 0 .41-1.92c.26-3.93-2.73-7.11-3.65-8l-.27-.26-.28-.26m-.1 6.83l-.21.69a10.9 10.9 0 0 0-.32 2.65c-.07 3.14.44 7.1 1.1 8.32l.25.5.32-.47a8.16 8.16 0 0 0 1.48-4.45 11.66 11.66 0 0 0-2.22-6.64l-.21-.3-.19-.3m-1.65 7.28l-.41.52c-1.43 1.91-3.28 8.15-3.35 10.63v.47l.09.58.44-.28a8.31 8.31 0 0 0 4-7.08 13.37 13.37 0 0 0-.64-4.22l-.1-.31-.09-.31m5.42 9.67l-.72.11c-2.64.43-10.12 4.65-11.26 6.36l-.29.44.51.08c6.16 1.08 9.45-3.11 11.39-6.37l.19-.31.18-.31" fill="#6b7c93"/><path d="M210 79.3a24.81 24.81 0 0 0-7.52 6.14l-.17.23.19.21a3.25 3.25 0 0 0 1 .68l.21.07.15-.17c2.73-3.4 7.42-7.57 12.43-8.09a6.28 6.28 0 0 0 2.51 1.72c2.85 1 7.76.49 11.68-1.11l.92-.38-1-.26c-9.31-2.53-16.4-1-20.42 1m20.28-11.75l-.6.31c-2 1.38-7.7 6.25-8.12 7.92l-.09.39h.39c6.23.53 7.73-4.31 8.32-8l.05-.34v-.33M72.83 30.27h7.79v7.1h-7.79zM80 80h-6.54V45.43H80zM24 45.46h6.54v34.59h-6.37V75H24c-2.62 4.35-7 6.13-11.86 6.13C5 81.08.81 75.57.81 68.61V45.46h6.55v20.47c0 6 1.38 10.4 7.65 10.4a8.22 8.22 0 0 0 7.72-5A25.62 25.62 0 0 0 24 63.24V45.46m19.66 5.1h.13c2.21-4.34 7-6.13 10.48-6.13 2.41 0 13.09.62 13.09 11.71v23.91h-6.55V58.28c0-5.72-2.41-8.82-7.92-8.82A9 9 0 0 0 46.55 52c-1 1-2.76 2.48-2.76 9.24v18.81h-6.54V45.46h6.41v5.1m63.76 5.99c-.35-4.32-2.39-7.32-7.06-7.32-6.22 0-8.62 5.4-8.62 13.49s2.4 13.48 8.62 13.48c4.31 0 7-2.8 7.32-7.73h6.52c-.56 7.73-6.3 12.46-13.9 12.46-11 0-15.41-7.8-15.41-17.94S90 44.5 100.85 44.5c7.26 0 12.73 4.59 13.06 12h-6.49M124 64c-.48 6 2 12.26 8.62 12.26 5.07 0 7.61-2 8.35-7h6.86c-1 7.81-7.07 11.71-15.27 11.71-11 0-15.42-7.8-15.42-17.94s5.08-18.49 16-18.49c10.27.22 15.12 6.71 15.12 16.24V64H124m17.39-4.52c.14-5.74-2.47-10.2-8.77-10.2-5.41 0-8.62 4.58-8.62 10.2zm14.17 20.42V50.05h-5.9v-4.53h5.9v-7.39c.22-7.53 5.9-9.51 10.77-9.51a27.75 27.75 0 0 1 4.65.68v5.41c-1.1-.06-2.19-.21-3.29-.21-3.69 0-5.82 1-5.62 4.73v6.29h8v4.53h-8V79.9h-6.51" fill="#6b7c93"/></svg>