<svg xmlns="http://www.w3.org/2000/svg" width="72" height="72" viewBox="0 0 72 72"><path fill="#6772e5" d="M0 0h72v72H0z"/><path fill="none" stroke="#fff" stroke-linecap="round" stroke-linejoin="round" stroke-width="1.5" d="M12.83 21.83l-1.95-.7-.09 2.26-1.84 4.53-.09 1.9-.72 1.24.27.97-.22 1.12.77 1.93.15 1.65.77 2.21-.06.94 2.47 1.45.7 2.11 2.47.34 3.87 2.53 3.45.43.11-.54 1.75.26 1.5 1.6.44 1.39 1.54 1.08 1.13-1.11 1.3.57.87 1.67.91.97.44 1.53 2.1.84.4-.29-.15-1.63.66-1.15 2.45-1.7 1.67-.47 1.94.26.87.6 1.01-.59.95.46.5-.78-.54-1 3.08-.31 1.4.78 1.14-.66 1.25 1.27.46 1.88 1.83 2.5.13 2.04 1.75-2.04.58-1.79-.67-2.09-1.41-2.83-.39-2.05 4.82-5.25.08-1.06-.99-1.4.69-1.76-.26-.93.86-1.47-.06-.71 1.85-1.75 2.23-.33-1.5-2.04.54-1.17 2.34-2.21-1.3-1.2-.29-1.71-1.41-.54-1.13.83-.17 2.44-.57.89-3.1.8-1.14 1.42-.2 1.22-1.62.2-.42 1.21-2.07 1.49-1.58-2.46-.3-2.21-.75-1.38-1.95.5-3-1.95-.8 2.16-2.5-.46.42-2.12-2.87-1.25-1.75.62-4.17-.29-5.25-.46-5.57-.84-5.21-1.16-2.18-.79-.67 1.54z"/><path fill="none" stroke="#fff" stroke-linecap="round" stroke-linejoin="round" stroke-width="1.5" d="M44.88 33.13l.25-2.63.41-2.08.84-1.59"/></svg>